<?xml version="1.0" encoding="UTF-8"?>
<svg version="1.1" xmlns="http://www.w3.org/2000/svg" width="666" height="375">
<path d="M0 0 C0.66 0.33 1.32 0.66 2 1 C2 28.06 2 55.12 2 83 C6.62 82.01 11.24 81.02 16 80 C16.33 59.54 16.66 39.08 17 18 C21.92763059 18 23.67168357 19.70360986 27 23 C28.74420778 24.92478459 30.43720509 26.88555967 32.12109375 28.86328125 C35.24167341 32.41204856 38.62061229 35.69961096 42 39 C44.58008318 36.49363348 46.92126767 34.1018889 49.125 31.25 C53.00601721 26.5258225 57.84569315 22.26465039 63 19 C65.69826244 19.05456045 66.68583328 19.73854582 68.74609375 21.453125 C69.58333984 22.34257812 69.58333984 22.34257812 70.4375 23.25 C71.04207031 23.88164062 71.64664063 24.51328125 72.26953125 25.1640625 C72.84058594 25.76992187 73.41164063 26.37578125 74 27 C74.86625 27.86625 75.7325 28.7325 76.625 29.625 C82.08333333 35.08333333 87.54166667 40.54166667 93 46 C93.7528125 46.70640625 94.505625 47.4128125 95.28125 48.140625 C97 50 97 50 96.9375 52.1875 C96 54 96 54 93 55 C88.125 50.375 88.125 50.375 87 47 C86.2575 46.71125 85.515 46.4225 84.75 46.125 C79.49434121 43.97495777 76.46002264 39.3250283 73 35 C70.16004744 32.01804982 67.31498649 29.43005366 64 27 C61.45489625 29.37111769 58.94379202 31.77544635 56.4375 34.1875 C55.71369141 34.86103516 54.98988281 35.53457031 54.24414062 36.22851562 C53.56416016 36.88916016 52.88417969 37.54980469 52.18359375 38.23046875 C51.54993896 38.83270264 50.91628418 39.43493652 50.26342773 40.05541992 C48.74143613 41.97139035 48.74143613 41.97139035 49.17602539 44.5480957 C49.95228787 47.21091682 49.95228787 47.21091682 52 50 C52.22705078 53.00268555 52.22705078 53.00268555 52.1953125 56.63671875 C52.18886719 57.93544922 52.18242187 59.23417969 52.17578125 60.57226562 C52.1590706 61.94401307 52.14214071 63.31575786 52.125 64.6875 C52.11496674 66.07095718 52.10584149 67.45442127 52.09765625 68.83789062 C52.07404967 72.22543452 52.04112037 75.61263072 52 79 C53.17433594 79.17015625 54.34867187 79.3403125 55.55859375 79.515625 C88.48361953 84.41011832 88.48361953 84.41011832 100 92 C102 95 102 95 101.75 97.5625 C101 100 101 100 99 102 C98.63047951 104.12860662 98.63047951 104.12860662 98.5859375 106.5703125 C98.54726563 107.46621094 98.50859375 108.36210937 98.46875 109.28515625 C98.4378125 110.22230469 98.406875 111.15945312 98.375 112.125 C98.33632813 113.06988281 98.29765625 114.01476562 98.2578125 114.98828125 C98.16338654 117.32532375 98.07781606 119.66235501 98 122 C96.57021072 122.19768669 95.13889617 122.3843616 93.70703125 122.56640625 C92.91014893 122.67154541 92.1132666 122.77668457 91.29223633 122.88500977 C88.23771539 123.03824007 85.85940991 121.99746857 83 121 C80.83284443 121.87483915 80.83284443 121.87483915 79 123 C77.515 122.505 77.515 122.505 76 122 C75.67 120.02 75.34 118.04 75 116 C74.62875 117.4540625 74.62875 117.4540625 74.25 118.9375 C73.8375 119.948125 73.425 120.95875 73 122 C70.875 122.875 70.875 122.875 69 123 C69.66 124.32 70.32 125.64 71 127 C71.86625 126.814375 72.7325 126.62875 73.625 126.4375 C77.05152628 125.99332067 79.64212371 126.28045508 83 127 C83 125.68 83 124.36 83 123 C84.32 123 85.64 123 87 123 C87.33 123.99 87.66 124.98 88 126 C89.2375 125.9175 90.475 125.835 91.75 125.75 C95.10506698 125.7262052 95.75447904 125.80358323 98.5 128 C98.995 128.66 99.49 129.32 100 130 C98.25 135.75 98.25 135.75 96 138 C92.4375 137.75 92.4375 137.75 89 137 C88.67 136.34 88.34 135.68 88 135 C87.67 135.99 87.34 136.98 87 138 C86.2575 137.814375 85.515 137.62875 84.75 137.4375 C82.12902348 136.82960527 82.12902348 136.82960527 80.125 137.5 C76.96876026 138.24264465 74.16673267 137.52778878 71 137 C68.78918149 136.89459074 68.78918149 136.89459074 66 138 C65.505 133.545 65.505 133.545 65 129 C64.34 129.66 63.68 130.32 63 131 C63.29299023 132.67422986 63.62690101 134.34178227 64 136 C63.67 136.66 63.34 137.32 63 138 C58.05 138 53.1 138 48 138 C46.875 124.25 46.875 124.25 48 122 C46.02 122.495 46.02 122.495 44 123 C43.67 127.62 43.34 132.24 43 137 C31.84615385 139.23076923 31.84615385 139.23076923 27 136 C26.01 136.66 25.02 137.32 24 138 C20.8125 138.125 20.8125 138.125 18 138 C14.88 131.76 14.88 131.76 15.375 128.625 C17.94719283 126.05280717 20.46474164 126.18285819 24 126 C25.33333333 126.33333333 26.66666667 126.66666667 28 127 C30.33944736 126.71269945 32.6739143 126.38063221 35 126 C35.99 126 36.98 126 38 126 C38.495 124.515 38.495 124.515 39 123 C39.66 122.67 40.32 122.34 41 122 C41 115.4 41 108.8 41 102 C41.99 101.67 42.98 101.34 44 101 C44.99 101.66 45.98 102.32 47 103 C47.29296875 106.0390625 47.29296875 106.0390625 47.1875 109.625 C47.14689453 111.40777344 47.14689453 111.40777344 47.10546875 113.2265625 C47.07066406 114.14179688 47.03585937 115.05703125 47 116 C47.99 116 48.98 116 50 116 C50.103125 114.906875 50.20625 113.81375 50.3125 112.6875 C51.18741462 107.99477615 51.18741462 107.99477615 54 106 C56.66381836 105.62768555 56.66381836 105.62768555 59.83984375 105.63671875 C60.98517578 105.63736328 62.13050781 105.63800781 63.31054688 105.63867188 C65.10588867 105.6628418 65.10588867 105.6628418 66.9375 105.6875 C68.13052734 105.68427734 69.32355469 105.68105469 70.55273438 105.67773438 C80.24937445 105.73769112 80.24937445 105.73769112 84 108 C84.66 107.34 85.32 106.68 86 106 C89.125 105.875 89.125 105.875 92 106 C91.67 104.35 91.34 102.7 91 101 C78.62771543 96.41194447 66.6513787 93.06605793 53.55859375 91.24316406 C52.58535156 91.10491211 51.61210937 90.96666016 50.609375 90.82421875 C49.3095166 90.65539185 49.3095166 90.65539185 47.98339844 90.4831543 C47.00161621 90.24399292 47.00161621 90.24399292 46 90 C44.43663852 86.87327705 44.86400533 83.53778814 44.859375 80.10546875 C44.8410449 78.49412651 44.8214744 76.882798 44.80078125 75.27148438 C44.77182719 72.73015243 44.75000042 70.1897009 44.74951172 67.64819336 C44.74617136 65.19565661 44.71158901 62.74515189 44.671875 60.29296875 C44.6789447 59.53759323 44.6860144 58.78221771 44.69329834 58.00395203 C44.6009778 53.98888649 44.18426871 52.22181907 41.5847168 49.0925293 C40.30528198 48.05672729 40.30528198 48.05672729 39 47 C38.33097656 46.41476563 37.66195312 45.82953125 36.97265625 45.2265625 C35.70331093 44.16228524 34.43248471 43.09977165 33.16015625 42.0390625 C30.20833576 39.25271477 27.64168218 36.08196255 25 33 C24.67 52.14 24.34 71.28 24 91 C18.06 91.99 12.12 92.98 6 94 C3.525 94.99 3.525 94.99 1 96 C-5.28709237 96.54199072 -5.28709237 96.54199072 -7.6867075 94.71767426 C-9.98236172 91.71515491 -9.42363049 87.98676688 -9.40405273 84.35351562 C-9.41091599 83.4703215 -9.41777924 82.58712738 -9.42485046 81.6771698 C-9.44317466 78.75336704 -9.43927333 75.83009794 -9.43359375 72.90625 C-9.43815254 70.87748031 -9.44345721 68.84871217 -9.44947815 66.81994629 C-9.45842007 62.56626108 -9.45597345 58.31276351 -9.44604492 54.05908203 C-9.43454835 48.60105682 -9.45477195 43.14367789 -9.48396206 37.68573761 C-9.50228398 33.49590931 -9.50203971 29.30623707 -9.49632454 25.11637878 C-9.49617086 23.10368441 -9.50225327 21.09097977 -9.51461601 19.07832336 C-9.52945026 16.26729444 -9.51890536 13.45747476 -9.50170898 10.64648438 C-9.51137695 9.81106613 -9.52104492 8.97564789 -9.53100586 8.11491394 C-9.45893905 2.50532611 -9.45893905 2.50532611 -7.13270569 -0.05603027 C-4.34474447 -1.2900266 -2.86755197 -0.90554273 0 0 Z M58 111 C56.70366379 112.06645115 56.70366379 112.06645115 56.9375 114.5625 C56.958125 115.366875 56.97875 116.17125 57 117 C58.32 116.67 59.64 116.34 61 116 C61 114.68 61 113.36 61 112 C60.01 111.67 59.02 111.34 58 111 Z M89 111 C89 112.98 89 114.96 89 117 C89.99 116.67 90.98 116.34 92 116 C92.33 115.01 92.66 114.02 93 113 C91.68 112.34 90.36 111.68 89 111 Z M57 123 C56.67 123.99 56.34 124.98 56 126 C54.35 126.33 52.7 126.66 51 127 C51 127.33 51 127.66 51 128 C55.14127969 128.0986019 58.92829375 127.74031023 63 127 C63.66 127 64.32 127 65 127 C65.59070014 125.05396726 65.59070014 125.05396726 66 123 C64.95509265 121.7321044 64.95509265 121.7321044 62.625 121.875 C59.88906952 121.88656262 59.88906952 121.88656262 57 123 Z M31 130 C31 131.32 31 132.64 31 134 C32.32 134 33.64 134 35 134 C35.33 133.01 35.66 132.02 36 131 C34.35 130.67 32.7 130.34 31 130 Z M73 131 C73.66 132.32 74.32 133.64 75 135 C75.99 134.34 76.98 133.68 78 133 C77.67 131.68 77.34 130.36 77 129 C75.53774984 128.90754997 75.53774984 128.90754997 73 131 Z M51 132 C51 132.66 51 133.32 51 134 C53.31 134 55.62 134 58 134 C57.67 133.01 57.34 132.02 57 131 C53.2236068 130.7018576 53.2236068 130.7018576 51 132 Z M92 133 C96 134 96 134 96 134 Z " fill="#E7CE7D" transform="translate(296,111)"/>
<path d="M0 0 C1.32 0.66 2.64 1.32 4 2 C4 6.29 4 10.58 4 15 C4.99 15 5.98 15 7 15 C7.103125 13.906875 7.20625 12.81375 7.3125 11.6875 C8.18741462 6.99477615 8.18741462 6.99477615 11 5 C13.66381836 4.62768555 13.66381836 4.62768555 16.83984375 4.63671875 C17.98517578 4.63736328 19.13050781 4.63800781 20.31054688 4.63867188 C22.10588867 4.6628418 22.10588867 4.6628418 23.9375 4.6875 C25.13052734 4.68427734 26.32355469 4.68105469 27.55273438 4.67773438 C37.24937445 4.73769112 37.24937445 4.73769112 41 7 C41.66 6.34 42.32 5.68 43 5 C46.125 4.875 46.125 4.875 49 5 C49.33 3.35 49.66 1.7 50 0 C51.65 0 53.3 0 55 0 C55 6.93 55 13.86 55 21 C45.79775281 22.02247191 45.79775281 22.02247191 40 20 C37.83284443 20.87483915 37.83284443 20.87483915 36 22 C35.01 21.67 34.02 21.34 33 21 C32.505 18.03 32.505 18.03 32 15 C31.7525 15.969375 31.505 16.93875 31.25 17.9375 C30.63125 19.4534375 30.63125 19.4534375 30 21 C27.875 21.875 27.875 21.875 26 22 C26.66 23.32 27.32 24.64 28 26 C28.86625 25.814375 29.7325 25.62875 30.625 25.4375 C34.05152628 24.99332067 36.64212371 25.28045508 40 26 C40 24.68 40 23.36 40 22 C41.32 22 42.64 22 44 22 C44.495 23.485 44.495 23.485 45 25 C46.2375 24.9175 47.475 24.835 48.75 24.75 C52.10506698 24.7262052 52.75447904 24.80358323 55.5 27 C55.995 27.66 56.49 28.32 57 29 C55.25 34.75 55.25 34.75 53 37 C49.4375 36.75 49.4375 36.75 46 36 C45.67 35.34 45.34 34.68 45 34 C44.67 34.99 44.34 35.98 44 37 C43.2575 36.814375 42.515 36.62875 41.75 36.4375 C39.12902348 35.82960527 39.12902348 35.82960527 37.125 36.5 C33.96876026 37.24264465 31.16673267 36.52778878 28 36 C25.78918149 35.89459074 25.78918149 35.89459074 23 37 C22.505 32.545 22.505 32.545 22 28 C21.34 28.66 20.68 29.32 20 30 C20.29299023 31.67422986 20.62690101 33.34178227 21 35 C20.505 35.99 20.505 35.99 20 37 C15.05 37 10.1 37 5 37 C3.875 23.25 3.875 23.25 5 21 C3.68 21.33 2.36 21.66 1 22 C0.67 26.62 0.34 31.24 0 36 C-11.15384615 38.23076923 -11.15384615 38.23076923 -16 35 C-16.99 35.66 -17.98 36.32 -19 37 C-22.1875 37.125 -22.1875 37.125 -25 37 C-28.12 30.76 -28.12 30.76 -27.625 27.625 C-25.05280717 25.05280717 -22.53525836 25.18285819 -19 25 C-17.66666667 25.33333333 -16.33333333 25.66666667 -15 26 C-12.66055264 25.71269945 -10.3260857 25.38063221 -8 25 C-7.01 25 -6.02 25 -5 25 C-4.67 24.01 -4.34 23.02 -4 22 C-3.34 21.67 -2.68 21.34 -2 21 C-2 14.4 -2 7.8 -2 1 C-1.34 0.67 -0.68 0.34 0 0 Z M15 10 C13.70366379 11.06645115 13.70366379 11.06645115 13.9375 13.5625 C13.958125 14.366875 13.97875 15.17125 14 16 C15.32 15.67 16.64 15.34 18 15 C18 13.68 18 12.36 18 11 C17.01 10.67 16.02 10.34 15 10 Z M46 10 C46 11.98 46 13.96 46 16 C46.99 15.67 47.98 15.34 49 15 C49.33 14.01 49.66 13.02 50 12 C48.68 11.34 47.36 10.68 46 10 Z M14 22 C13.67 22.99 13.34 23.98 13 25 C11.35 25.33 9.7 25.66 8 26 C8 26.33 8 26.66 8 27 C12.14127969 27.0986019 15.92829375 26.74031023 20 26 C20.66 26 21.32 26 22 26 C22.59070014 24.05396726 22.59070014 24.05396726 23 22 C21.95509265 20.7321044 21.95509265 20.7321044 19.625 20.875 C16.88906952 20.88656262 16.88906952 20.88656262 14 22 Z M-12 29 C-12 30.32 -12 31.64 -12 33 C-10.68 33 -9.36 33 -8 33 C-7.67 32.01 -7.34 31.02 -7 30 C-8.65 29.67 -10.3 29.34 -12 29 Z M30 30 C30.66 31.32 31.32 32.64 32 34 C32.99 33.34 33.98 32.68 35 32 C34.67 30.68 34.34 29.36 34 28 C32.53774984 27.90754997 32.53774984 27.90754997 30 30 Z M8 31 C8 31.66 8 32.32 8 33 C10.31 33 12.62 33 15 33 C14.67 32.01 14.34 31.02 14 30 C10.2236068 29.7018576 10.2236068 29.7018576 8 31 Z M49 32 C53 33 53 33 53 33 Z " fill="#82B5BD" transform="translate(339,212)"/>
<path d="M0 0 C0.66 0.33 1.32 0.66 2 1 C2 28.06 2 55.12 2 83 C6.455 82.01 6.455 82.01 11 81 C13.33222958 80.92823909 15.66877637 80.90079899 18 81 C17.99214478 79.9958606 17.99214478 79.9958606 17.98413086 78.97143555 C17.96307529 75.87680029 17.9502503 72.78218019 17.9375 69.6875 C17.92912109 68.63498047 17.92074219 67.58246094 17.91210938 66.49804688 C17.8933893 60.41402312 18.16824617 54.46915244 18.78833008 48.41772461 C19.13912306 44.41091625 18.91951713 40.4443727 18.7421875 36.43359375 C18.82726562 35.63050781 18.91234375 34.82742187 19 34 C19.99 33.34 20.98 32.68 22 32 C23.55020732 35.10041464 23.38406957 38.42492863 23.55859375 41.8359375 C23.60084579 42.63252777 23.64309784 43.42911804 23.68663025 44.24984741 C24.14344785 53.70696454 24.1095257 63.15952531 24.0625 72.625 C24.05746538 74.42187373 24.052906 76.21874885 24.04882812 78.015625 C24.03799995 82.34378563 24.02084838 86.67187652 24 91 C22.13794922 91.29003906 22.13794922 91.29003906 20.23828125 91.5859375 C18.59630539 91.84865364 16.95438096 92.11169141 15.3125 92.375 C14.49587891 92.50132812 13.67925781 92.62765625 12.83789062 92.7578125 C8.61730112 93.44130878 4.94975628 94.30930287 1 96 C-5.28709237 96.54199072 -5.28709237 96.54199072 -7.6867075 94.71767426 C-9.98236172 91.71515491 -9.42363049 87.98676688 -9.40405273 84.35351562 C-9.41091599 83.4703215 -9.41777924 82.58712738 -9.42485046 81.6771698 C-9.44317466 78.75336704 -9.43927333 75.83009794 -9.43359375 72.90625 C-9.43815254 70.87748031 -9.44345721 68.84871217 -9.44947815 66.81994629 C-9.45842007 62.56626108 -9.45597345 58.31276351 -9.44604492 54.05908203 C-9.43454835 48.60105682 -9.45477195 43.14367789 -9.48396206 37.68573761 C-9.50228398 33.49590931 -9.50203971 29.30623707 -9.49632454 25.11637878 C-9.49617086 23.10368441 -9.50225327 21.09097977 -9.51461601 19.07832336 C-9.52945026 16.26729444 -9.51890536 13.45747476 -9.50170898 10.64648438 C-9.51137695 9.81106613 -9.52104492 8.97564789 -9.53100586 8.11491394 C-9.45893905 2.50532611 -9.45893905 2.50532611 -7.13270569 -0.05603027 C-4.34474447 -1.2900266 -2.86755197 -0.90554273 0 0 Z " fill="#E7C96B" transform="translate(296,111)"/>
<path d="M0 0 C0.66 0.33 1.32 0.66 2 1 C2.05012431 4.92858919 2.08605502 8.85704984 2.10986328 12.78588867 C2.12464917 14.76552896 2.15008592 16.74508063 2.17578125 18.72460938 C2.28298956 39.89825031 2.28298956 39.89825031 -4 48 C-10.80355283 52.57769912 -17.92244344 53.8134043 -26 53 C-32.76263937 51.31620346 -38.00554176 48.85947288 -43 44 C-41.7508258 40.54074837 -40.32472205 37.85306797 -38 35 C-35.86090974 36.05233406 -33.75474505 37.13556807 -31.66796875 38.2890625 C-24.72076423 42.12592309 -24.72076423 42.12592309 -17 42 C-12.7329012 38.66996881 -11.25167651 36.64336232 -10.42382812 31.23779297 C-10.11259419 26.68158688 -10.11564701 22.12722601 -10.125 17.5625 C-10.10685688 15.95634757 -10.08604911 14.35022289 -10.0625 12.74414062 C-10.01086413 8.82907371 -9.99555394 4.91538855 -10 1 C-6.49852959 -0.1671568 -3.67329964 -0.13357453 0 0 Z " fill="#D5B45F" transform="translate(297,212)"/>
<path d="M0 0 C2.29442397 0.09285528 4.58628434 0.250995 6.875 0.4375 C18.07397439 1.64652497 18.07397439 1.64652497 29 0 C30.97654185 -0.11953769 32.95738456 -0.17526196 34.9375 -0.1875 C35.97777344 -0.20167969 37.01804687 -0.21585938 38.08984375 -0.23046875 C40.95046613 -0.00392282 42.57670151 0.52266381 45 2 C45 1.34 45 0.68 45 0 C46.77117187 0.12568359 46.77117187 0.12568359 48.578125 0.25390625 C50.13539497 0.35709884 51.6926879 0.4599453 53.25 0.5625 C54.41595703 0.64661133 54.41595703 0.64661133 55.60546875 0.73242188 C56.73662109 0.80493164 56.73662109 0.80493164 57.890625 0.87890625 C58.92751465 0.94960327 58.92751465 0.94960327 59.98535156 1.02172852 C62.02369048 1.08025821 62.02369048 1.08025821 64.02636719 0.47631836 C67.08306711 -0.26138841 69.92384205 0.53567427 73 1 C73.33 0.67 73.66 0.34 74 0 C77.36629251 -0.14636054 79.78419562 -0.07193479 83 1 C84.73324119 0.91538508 86.46392812 0.76395645 88.1875 0.5625 C89.08855469 0.46066406 89.98960937 0.35882813 90.91796875 0.25390625 C91.60503906 0.17011719 92.29210937 0.08632812 93 0 C94.125 4.75 94.125 4.75 93 7 C76 7 76 7 72.9609375 6.96484375 C64.90295407 6.90339943 56.93994181 7.15100057 48.90380859 7.73217773 C45.5945228 7.95282126 43.18018519 8.06006173 40 7 C37.24230848 6.92669126 34.51065203 6.90821998 31.75390625 6.9375 C30.54262306 6.94317993 30.54262306 6.94317993 29.30686951 6.94897461 C25.85287302 6.96532222 22.39899484 6.99344599 18.94506836 7.02050781 C16.42301989 7.03859213 13.90099064 7.05068747 11.37890625 7.0625 C10.59963272 7.07079834 9.82035919 7.07909668 9.01747131 7.08764648 C5.49805969 7.10355464 2.38477808 6.94859948 -1 6 C-1.042721 4.33388095 -1.04063832 2.66617115 -1 1 C-0.67 0.67 -0.34 0.34 0 0 Z " fill="#ACCFCE" transform="translate(302,251)"/>
<path d="M0 0 C2.31 0 4.62 0 7 0 C6.01 0.33 5.02 0.66 4 1 C4.66 2.32 5.32 3.64 6 5 C6.86625 4.814375 7.7325 4.62875 8.625 4.4375 C12.05152628 3.99332067 14.64212371 4.28045508 18 5 C18 3.68 18 2.36 18 1 C19.32 1 20.64 1 22 1 C22.495 2.485 22.495 2.485 23 4 C24.2375 3.9175 25.475 3.835 26.75 3.75 C30.10506698 3.7262052 30.75447904 3.80358323 33.5 6 C33.995 6.66 34.49 7.32 35 8 C33.25 13.75 33.25 13.75 31 16 C27.4375 15.75 27.4375 15.75 24 15 C23.505 14.01 23.505 14.01 23 13 C22.67 13.99 22.34 14.98 22 16 C21.2575 15.814375 20.515 15.62875 19.75 15.4375 C17.12902348 14.82960527 17.12902348 14.82960527 15.125 15.5 C11.96876026 16.24264465 9.16673267 15.52778878 6 15 C3.78918149 14.89459074 3.78918149 14.89459074 1 16 C0.67 13.03 0.34 10.06 0 7 C-0.66 7.66 -1.32 8.32 -2 9 C-1.70700977 10.67422986 -1.37309899 12.34178227 -1 14 C-1.33 14.66 -1.66 15.32 -2 16 C-6.95 16 -11.9 16 -17 16 C-17.125 3.25 -17.125 3.25 -16 1 C-13.69 1 -11.38 1 -9 1 C-8.67 2.32 -8.34 3.64 -8 5 C-7.05125 4.814375 -6.1025 4.62875 -5.125 4.4375 C-2 4 -2 4 0 5 C0 3.35 0 1.7 0 0 Z M8 9 C8.66 10.32 9.32 11.64 10 13 C10.99 12.34 11.98 11.68 13 11 C12.67 9.68 12.34 8.36 12 7 C10.53774984 6.90754997 10.53774984 6.90754997 8 9 Z M-14 10 C-14 10.66 -14 11.32 -14 12 C-11.69 12 -9.38 12 -7 12 C-7.33 11.01 -7.66 10.02 -8 9 C-11.7763932 8.7018576 -11.7763932 8.7018576 -14 10 Z M27 11 C31 12 31 12 31 12 Z " fill="#C7B78A" transform="translate(361,233)"/>
<path d="M0 0 C2.88969312 2.88969312 2.46493349 5.94839741 2.62109375 9.8359375 C2.65883408 10.63252777 2.6965744 11.42911804 2.73545837 12.24984741 C3.14081549 21.705885 3.10951084 31.16251577 3.0625 40.625 C3.05746538 42.42187373 3.052906 44.21874885 3.04882812 46.015625 C3.03799995 50.34378563 3.02084838 54.67187652 3 59 C-1.29 59.66 -5.58 60.32 -10 61 C-9.01 60.01 -8.02 59.02 -7 58 C-6.34 58 -5.68 58 -5 58 C-5.33 57.34 -5.66 56.68 -6 56 C-6.495 56.495 -6.495 56.495 -7 57 C-8.99958364 57.04080783 -11.00045254 57.04254356 -13 57 C-13 57.99 -13 58.98 -13 60 C-15.97 60.495 -15.97 60.495 -19 61 C-20.09658936 57.71023192 -19.79953138 56.28696233 -19 53 C-19.66 52.67 -20.32 52.34 -21 52 C-20.06027344 51.80083984 -20.06027344 51.80083984 -19.1015625 51.59765625 C-18.28429687 51.42105469 -17.46703125 51.24445313 -16.625 51.0625 C-15.81289063 50.88847656 -15.00078125 50.71445313 -14.1640625 50.53515625 C-11.970537 50.07669307 -11.970537 50.07669307 -10 49 C-7.6670134 48.95977609 -5.33293334 48.95679753 -3 49 C-3.00785522 47.9958606 -3.00785522 47.9958606 -3.01586914 46.97143555 C-3.03692471 43.87680029 -3.0497497 40.78218019 -3.0625 37.6875 C-3.07087891 36.63498047 -3.07925781 35.58246094 -3.08789062 34.49804688 C-3.10660817 28.4148462 -2.83499229 22.46855135 -2.21606445 16.41772461 C-1.85823304 12.4136517 -2.02975345 8.44478379 -2.16015625 4.43359375 C-2 2 -2 2 0 0 Z " fill="#E3C263" transform="translate(317,143)"/>
<path d="M0 0 C10.85690385 0.90474199 21.7324432 2.94470392 31 9 C33 12 33 12 32.8125 14.5625 C32 17 32 17 29 19 C26.3125 18.625 26.3125 18.625 24 18 C23.67 18.66 23.34 19.32 23 20 C22.67 19.34 22.34 18.68 22 18 C19.68862845 16.96547939 19.68862845 16.96547939 16.87109375 16.0546875 C15.83662109 15.70019531 14.80214844 15.34570312 13.73632812 14.98046875 C12.64771484 14.61566406 11.55910156 14.25085938 10.4375 13.875 C9.34501953 13.50246094 8.25253906 13.12992188 7.12695312 12.74609375 C4.42013545 11.82412092 1.71116552 10.90909174 -1 10 C-0.67 8.02 -0.34 6.04 0 4 C0.99 3.67 1.98 3.34 3 3 C3 2.34 3 1.68 3 1 C2.01 0.67 1.02 0.34 0 0 Z " fill="#D2A842" transform="translate(365,194)"/>
<path d="M0 0 C6.01975285 2.67544571 9.9585011 6.97643316 14.15234375 11.8984375 C16.54530272 14.62023861 19.10788613 17.13705937 21.71484375 19.65234375 C23 21 23 21 23 22 C21.63875 21.9690625 21.63875 21.9690625 20.25 21.9375 C16.83853378 21.88181489 16.83853378 21.88181489 13 23 C11.02 20.69 9.04 18.38 7 16 C6.67 22.27 6.34 28.54 6 35 C5.67 35 5.34 35 5 35 C4.67 29.06 4.34 23.12 4 17 C3.34 17 2.68 17 2 17 C2.01160156 18.24136719 2.02320313 19.48273438 2.03515625 20.76171875 C2.04453868 22.40364432 2.0536384 24.04557153 2.0625 25.6875 C2.07087891 26.50412109 2.07925781 27.32074219 2.08789062 28.16210938 C2.09111328 28.95810547 2.09433594 29.75410156 2.09765625 30.57421875 C2.10289307 31.30213623 2.10812988 32.03005371 2.11352539 32.7800293 C2 35 2 35 1.51367188 37.41796875 C0.95584408 40.22195485 0.79050767 42.88215236 0.68359375 45.73828125 C0.64169922 46.80498047 0.59980469 47.87167969 0.55664062 48.97070312 C0.51732422 50.07349609 0.47800781 51.17628906 0.4375 52.3125 C0.39431641 53.43462891 0.35113281 54.55675781 0.30664062 55.71289062 C0.20085213 58.47514569 0.09876328 61.2374863 0 64 C-0.66 63.67 -1.32 63.34 -2 63 C-1.89264792 54.93338522 -1.78004548 46.86686844 -1.66066074 38.80042362 C-1.60539769 35.05521202 -1.55197245 31.30999266 -1.50268555 27.56469727 C-1.45509165 23.95311414 -1.40275094 20.34162868 -1.34705925 16.73016167 C-1.32661306 15.34942481 -1.30790378 13.96866114 -1.29092598 12.58787727 C-1.2669322 10.66016686 -1.23629736 8.73254251 -1.20532227 6.80493164 C-1.18977798 5.70572891 -1.1742337 4.60652618 -1.15821838 3.47401428 C-1 1 -1 1 0 0 Z " fill="#F8EDC6" transform="translate(314,128)"/>
<path d="M0 0 C0.99 0.33 1.98 0.66 3 1 C3.03758423 2.21901001 3.03758423 2.21901001 3.07592773 3.46264648 C3.19149118 7.12110752 3.31439584 10.77928528 3.4375 14.4375 C3.47681641 15.71689453 3.51613281 16.99628906 3.55664062 18.31445312 C3.59853516 19.52939453 3.64042969 20.74433594 3.68359375 21.99609375 C3.72025146 23.12200928 3.75690918 24.2479248 3.79467773 25.40795898 C3.71218045 27.92853441 3.71218045 27.92853441 5 29 C5.66 28.01 6.32 27.02 7 26 C7.66 26.99 8.32 27.98 9 29 C11.01268145 29.68772728 11.01268145 29.68772728 13.3515625 29.94921875 C14.20234375 30.07490234 15.053125 30.20058594 15.9296875 30.33007812 C16.81914062 30.44802734 17.70859375 30.56597656 18.625 30.6875 C19.5221875 30.81705078 20.419375 30.94660156 21.34375 31.08007812 C23.56110619 31.39852822 25.7794718 31.70462606 28 32 C28.33 33.32 28.66 34.64 29 36 C28.01 36.495 28.01 36.495 27 37 C26.27306096 38.97888961 25.60183749 40.97954558 25 43 C22.08293797 42.69088746 19.1663891 42.37784575 16.25 42.0625 C15.425 41.97548828 14.6 41.88847656 13.75 41.79882812 C12.95078125 41.71181641 12.1515625 41.62480469 11.328125 41.53515625 C10.5949707 41.456604 9.86181641 41.37805176 9.10644531 41.29711914 C6.99386823 40.9991351 5.02774685 40.66937747 3 40 C1.42595895 36.85191791 1.77968653 33.46018236 1.71875 30 C1.70034058 29.20851562 1.68193115 28.41703125 1.66296387 27.6015625 C1.58419093 24.20847241 1.51651975 20.81518024 1.44775391 17.421875 C1.39605291 14.9478161 1.33879201 12.4739288 1.28125 10 C1.26767456 9.22914063 1.25409912 8.45828125 1.2401123 7.6640625 C1.22596542 3.70223594 1.22596542 3.70223594 0 0 Z " fill="#F7E896" transform="translate(339,161)"/>
<path d="M0 0 C0.66 0.33 1.32 0.66 2 1 C1.67 5.62 1.34 10.24 1 15 C-10.15384615 17.23076923 -10.15384615 17.23076923 -15 14 C-15.99 14.66 -16.98 15.32 -18 16 C-21.1875 16.125 -21.1875 16.125 -24 16 C-27.12 9.76 -27.12 9.76 -26.625 6.625 C-24.05280717 4.05280717 -21.53525836 4.18285819 -18 4 C-16.66666667 4.33333333 -15.33333333 4.66666667 -14 5 C-11.66055264 4.71269945 -9.3260857 4.38063221 -7 4 C-6.01 4 -5.02 4 -4 4 C-3.67 3.01 -3.34 2.02 -3 1 C-2.01 0.67 -1.02 0.34 0 0 Z M-11 8 C-11 9.32 -11 10.64 -11 12 C-9.68 12 -8.36 12 -7 12 C-6.67 11.01 -6.34 10.02 -6 9 C-7.65 8.67 -9.3 8.34 -11 8 Z " fill="#D7BA75" transform="translate(338,233)"/>
<path d="M0 0 C1.98 0 3.96 0 6 0 C6.05416741 2.72943537 6.09375225 5.45778564 6.125 8.1875 C6.15013672 9.34088867 6.15013672 9.34088867 6.17578125 10.51757812 C6.21331061 14.88974807 5.81461948 17.9514162 4 22 C4.33 22.66 4.66 23.32 5 24 C5.33 24.66 5.66 25.32 6 26 C5.35561283 27.67540664 4.68753301 29.34183216 4 31 C4.29519768 33.7336432 4.29519768 33.7336432 5 36 C3.0625 35.625 3.0625 35.625 1 35 C0.67 34.34 0.34 33.68 0 33 C-0.66 33.99 -1.32 34.98 -2 36 C-2.99 36 -3.98 36 -5 36 C-4.98839844 34.90300781 -4.97679687 33.80601562 -4.96484375 32.67578125 C-4.95546036 31.22135588 -4.94636075 29.76692865 -4.9375 28.3125 C-4.92912109 27.59126953 -4.92074219 26.87003906 -4.91210938 26.12695312 C-4.89456368 22.28444618 -5.06475779 18.73360474 -6 15 C-4.35 14.67 -2.7 14.34 -1 14 C-0.67 9.38 -0.34 4.76 0 0 Z " fill="#7BB3B1" transform="translate(306,213)"/>
<path d="M0 0 C3 0.125 3 0.125 4 1.125 C4.14115161 3.79558851 4.04247107 6.44932238 4 9.125 C4.66 8.795 5.32 8.465 6 8.125 C6 5.815 6 3.505 6 1.125 C8.875 0.5 8.875 0.5 12 0.125 C14 2.125 14 2.125 14.125 4.5625 C14.08375 5.408125 14.0425 6.25375 14 7.125 C14 8.115 14 9.105 14 10.125 C13.68330179 12.46064933 13.35179197 14.7943782 13 17.125 C8.25 18.25 8.25 18.25 6 17.125 C6 15.145 6 13.165 6 11.125 C5.34 11.125 4.68 11.125 4 11.125 C4.020625 12.094375 4.04125 13.06375 4.0625 14.0625 C4 17.125 4 17.125 3 18.125 C0 18.25 0 18.25 -3 18.125 C-4.82116003 16.30383997 -4.1323508 13.81828236 -4.13671875 11.3984375 C-4.13285156 10.64820313 -4.12898438 9.89796875 -4.125 9.125 C-4.12886719 8.37476563 -4.13273437 7.62453125 -4.13671875 6.8515625 C-4.12466153 0.1718609 -4.12466153 0.1718609 0 0 Z " fill="#DAB159" transform="translate(356,151.875)"/>
<path d="M0 0 C0.66 0.33 1.32 0.66 2 1 C2 10.57 2 20.14 2 30 C1.67 30 1.34 30 1 30 C1 20.76 1 11.52 1 2 C-1.97 2 -4.94 2 -8 2 C-7.67 4.31 -7.34 6.62 -7 9 C-4.03 6.525 -4.03 6.525 -1 4 C-0.09761253 6.70716242 0.11851302 8.23776768 0.09765625 11.01171875 C0.09443359 11.76904297 0.09121094 12.52636719 0.08789062 13.30664062 C0.07951172 14.09232422 0.07113281 14.87800781 0.0625 15.6875 C0.05798828 16.48478516 0.05347656 17.28207031 0.04882812 18.10351562 C0.0370585 20.06904257 0.01912348 22.03453085 0 24 C-0.96164062 24.28617188 -1.92328125 24.57234375 -2.9140625 24.8671875 C-6.09836683 25.68538357 -6.09836683 25.68538357 -7.375 28.125 C-7.684375 29.053125 -7.684375 29.053125 -8 30 C-8.66 30 -9.32 30 -10 30 C-10 20.43 -10 10.86 -10 1 C-6.49852959 -0.1671568 -3.67329964 -0.13357453 0 0 Z " fill="#F3DD96" transform="translate(297,212)"/>
<path d="M0 0 C2.12991575 1.05271698 4.23927881 2.12865745 6.33203125 3.25390625 C11.30950879 5.8798196 15.36756539 7.63266731 21 8 C18.3401439 11.44216672 15.09711714 11.99504674 11 13 C11 13.66 11 14.32 11 15 C14.63 15.66 18.26 16.32 22 17 C22 17.33 22 17.66 22 18 C12.96177852 18.70580471 4.46379014 17.15612433 -2.6875 11.25 C-3.450625 10.5075 -4.21375 9.765 -5 9 C-3.7508258 5.54074837 -2.32472205 2.85306797 0 0 Z " fill="#E1C56B" transform="translate(259,247)"/>
<path d="M0 0 C1.32 0.66 2.64 1.32 4 2 C4 6.29 4 10.58 4 15 C4.99 15 5.98 15 7 15 C7.103125 13.906875 7.20625 12.81375 7.3125 11.6875 C8 8 8 8 9.3125 6 C11 5 11 5 13.1875 5.3125 C13.785625 5.539375 14.38375 5.76625 15 6 C14.01 6 13.02 6 12 6 C12 6.66 12 7.32 12 8 C13.32 8.66 14.64 9.32 16 10 C15.01 11.32 14.02 12.64 13 14 C12.67 13.01 12.34 12.02 12 11 C11.34 10.67 10.68 10.34 10 10 C10.01160156 10.62648437 10.02320313 11.25296875 10.03515625 11.8984375 C10.04417969 12.71570313 10.05320312 13.53296875 10.0625 14.375 C10.07410156 15.18710938 10.08570313 15.99921875 10.09765625 16.8359375 C10 19 10 19 9 21 C9.99 21.33 10.98 21.66 12 22 C10.02 22 8.04 22 6 22 C5.67 22.99 5.34 23.98 5 25 C4.67 24.34 4.34 23.68 4 23 C4.33 22.34 4.66 21.68 5 21 C2.69 21 0.38 21 -2 21 C-2 14.4 -2 7.8 -2 1 C-1.34 0.67 -0.68 0.34 0 0 Z " fill="#8EB6B6" transform="translate(339,212)"/>
<path d="M0 0 C2.4375 1.5 2.4375 1.5 4 4 C4.80414661 8.04560357 4.63828902 10.97873756 2.4375 14.5 C-0.94888329 16.58392818 -3.09385318 16.55802097 -7 16 C-9.4375 14.5 -9.4375 14.5 -11 12 C-11.80414661 7.95439643 -11.63828902 5.02126244 -9.4375 1.5 C-6.05111671 -0.58392818 -3.90614682 -0.55802097 0 0 Z M-5 6 C-4.67 7.65 -4.34 9.3 -4 11 C-3.01 10.34 -2.02 9.68 -1 9 C-1.33 8.01 -1.66 7.02 -2 6 C-2.99 6 -3.98 6 -5 6 Z " fill="#76B1B6" transform="translate(324,217)"/>
<path d="M0 0 C0.99 0.33 1.98 0.66 3 1 C3.33 2.65 3.66 4.3 4 6 C7.78496138 4.48601545 8.0072198 3.9855604 10 0 C12.97 0.33 15.94 0.66 19 1 C19 3.31 19 5.62 19 8 C19.66 8 20.32 8 21 8 C20.67 8.99 20.34 9.98 20 11 C19.10796875 11.06058594 18.2159375 11.12117187 17.296875 11.18359375 C15.54117187 11.30927734 15.54117187 11.30927734 13.75 11.4375 C12.58984375 11.51871094 11.4296875 11.59992188 10.234375 11.68359375 C7.12963819 11.89444784 7.12963819 11.89444784 4.71875 12.62890625 C3.86796875 12.81259766 3.86796875 12.81259766 3 13 C0.75 11.5 0.75 11.5 -1 9 C-1.51470588 3.02941176 -1.51470588 3.02941176 0 0 Z " fill="#7AB1B4" transform="translate(349,222)"/>
<path d="M0 0 C5.75 1.875 5.75 1.875 8 3 C8.02952761 6.29164717 8.04697292 9.58325938 8.0625 12.875 C8.07087891 13.7928125 8.07925781 14.710625 8.08789062 15.65625 C8.10964173 21.8335647 7.73930108 27.86721835 7 34 C4.54199219 32.87866211 4.54199219 32.87866211 2 31 C1.35644531 28.24438477 1.35644531 28.24438477 1.328125 24.94140625 C1.30363281 23.75095703 1.27914063 22.56050781 1.25390625 21.33398438 C1.25261719 20.08939453 1.25132812 18.84480469 1.25 17.5625 C1.2168135 15.10542238 1.18048944 12.6483846 1.140625 10.19140625 C1.13579102 9.10029541 1.13095703 8.00918457 1.12597656 6.88500977 C1.01777576 4.40708568 0.71880291 2.36040299 0 0 Z " fill="#E8D090" transform="translate(340,158)"/>
<path d="M0 0 C1.65 0 3.3 0 5 0 C5 6.93 5 13.86 5 21 C1.37 20.67 -2.26 20.34 -6 20 C-5.67 18.68 -5.34 17.36 -5 16 C-4.01 15.67 -3.02 15.34 -2 15 C-1.67 14.01 -1.34 13.02 -1 12 C-1.99 11.67 -2.98 11.34 -4 11 C-4.66 12.32 -5.32 13.64 -6 15 C-7.1875 12.25 -7.1875 12.25 -8 9 C-6.875 6.625 -6.875 6.625 -5 5 C-3.68 5 -2.36 5 -1 5 C-0.67 3.35 -0.34 1.7 0 0 Z " fill="#78B4B9" transform="translate(389,212)"/>
<path d="M0 0 C6.70518586 -0.19818283 12.65176798 -0.30844801 19 2 C19 2.66 19 3.32 19 4 C18.01 4.495 18.01 4.495 17 5 C16.27306096 6.97888961 15.60183749 8.97954558 15 11 C11.7 10.67 8.4 10.34 5 10 C5 9.34 5 8.68 5 8 C3.865625 7.87625 2.73125 7.7525 1.5625 7.625 C0.386875 7.41875 -0.78875 7.2125 -2 7 C-2.33 6.34 -2.66 5.68 -3 5 C-2.34 5 -1.68 5 -1 5 C-0.67 3.35 -0.34 1.7 0 0 Z " fill="#F0D577" transform="translate(349,193)"/>
<path d="M0 0 C2.31 0 4.62 0 7 0 C7 1.32 7 2.64 7 4 C5.35 4 3.7 4 2 4 C2.2784375 5.175625 2.2784375 5.175625 2.5625 6.375 C3 9 3 9 2 11 C4.31 11 6.62 11 9 11 C8.54625 10.54625 8.0925 10.0925 7.625 9.625 C6.41666667 8.41666667 5.20833333 7.20833333 4 6 C5.45922693 6.11409593 6.91740598 6.24165544 8.375 6.375 C9.59316406 6.47941406 9.59316406 6.47941406 10.8359375 6.5859375 C13 7 13 7 15 9 C14.67 10.98 14.34 12.96 14 15 C9.05 15 4.1 15 -1 15 C-1.125 2.25 -1.125 2.25 0 0 Z " fill="#C8B479" transform="translate(345,234)"/>
<path d="M0 0 C0 0.99 0 1.98 0 3 C-1.32 3.33 -2.64 3.66 -4 4 C-4 4.66 -4 5.32 -4 6 C-4.99 6 -5.98 6 -7 6 C-7 6.99 -7 7.98 -7 9 C-8.91635217 9.05423638 -10.83314925 9.09289963 -12.75 9.125 C-14.35101563 9.15980469 -14.35101563 9.15980469 -15.984375 9.1953125 C-18.92470106 9.00487687 -20.52361878 8.52670104 -23 7 C-22 4 -22 4 -19.9375 2.8125 C-19.298125 2.544375 -18.65875 2.27625 -18 2 C-18 1.67 -18 1.34 -18 1 C-11.50010241 -0.76268409 -6.6508949 -1.52020455 0 0 Z " fill="#D1AD4C" transform="translate(292,255)"/>
<path d="M0 0 C1.73324119 -0.08461492 3.46392812 -0.23604355 5.1875 -0.4375 C6.08855469 -0.53933594 6.98960937 -0.64117187 7.91796875 -0.74609375 C8.60503906 -0.82988281 9.29210937 -0.91367188 10 -1 C11.125 3.75 11.125 3.75 10 6 C2 6 -6 6 -14 6 C-14 4.35 -14 2.7 -14 1 C-9.11142275 -1.30050694 -5.15450416 -1.71816805 0 0 Z " fill="#B4D3D5" transform="translate(385,252)"/>
<path d="M0 0 C1.134375 0.020625 2.26875 0.04125 3.4375 0.0625 C5.0625 2.75 5.0625 2.75 6.4375 6.0625 C5.5625 8.625 5.5625 8.625 4.4375 11.0625 C4.73269768 13.7961432 4.73269768 13.7961432 5.4375 16.0625 C3.5 15.6875 3.5 15.6875 1.4375 15.0625 C1.1075 14.4025 0.7775 13.7425 0.4375 13.0625 C-0.5525 14.5475 -0.5525 14.5475 -1.5625 16.0625 C-2.5525 16.0625 -3.5425 16.0625 -4.5625 16.0625 C-4.58935095 13.58326199 -4.60926547 11.1043116 -4.625 8.625 C-4.63756836 7.56442383 -4.63756836 7.56442383 -4.65039062 6.48242188 C-4.65903588 4.67556441 -4.61470011 2.86862397 -4.5625 1.0625 C-3.5625 0.0625 -3.5625 0.0625 0 0 Z " fill="#D3AD56" transform="translate(305.5625,232.9375)"/>
<path d="M0 0 C0 2.31 0 4.62 0 7 C-4.22949995 9.41685712 -7.12335991 10.34833144 -12 10 C-15.18333333 3.63333333 -15.18333333 3.63333333 -14.3125 0.625 C-10.73884364 -3.79952692 -4.8143371 -1.34801439 0 0 Z " fill="#D1AB4E" transform="translate(326,239)"/>
<path d="M0 0 C2.4375 0.75 2.4375 0.75 4.4375 1.75 C4.4375 28.15 4.4375 54.55 4.4375 81.75 C4.1075 81.75 3.7775 81.75 3.4375 81.75 C3.14990138 77.17863526 2.86517026 72.6071039 2.58300781 68.03540039 C2.48677631 66.48261787 2.38978362 64.92988232 2.29199219 63.37719727 C2.15095422 61.13570099 2.01272306 58.89404586 1.875 56.65234375 C1.83125244 55.96663803 1.78750488 55.28093231 1.74243164 54.57444763 C1.05587713 43.25536358 1.05587713 43.25536358 1.93139648 39.80175781 C2.73446233 36.54610641 2.55894663 33.25475616 2.53515625 29.921875 C2.5337413 29.17286926 2.53232635 28.42386353 2.53086853 27.65216064 C2.52528659 25.26806588 2.51273745 22.88406622 2.5 20.5 C2.49498266 18.88020969 2.49042016 17.26041791 2.48632812 15.640625 C2.47532308 11.67704688 2.45807091 7.71353955 2.4375 3.75 C-0.2025 3.42 -2.8425 3.09 -5.5625 2.75 C-3.69692219 0.29529235 -3.16506129 -0.30878647 0 0 Z " fill="#F1DE9E" transform="translate(293.5625,110.25)"/>
<path d="M0 0 C1 1 1 1 1.0625 3.375 C1.041875 4.24125 1.02125 5.1075 1 6 C1 6.99 1 7.98 1 9 C0.68330179 11.33564933 0.35179197 13.6693782 0 16 C-4.75 17.125 -4.75 17.125 -7 16 C-7 14.02 -7 12.04 -7 10 C-7.66 9.67 -8.32 9.34 -9 9 C-8.34 8.34 -7.68 7.68 -7 7 C-6.83322718 3.41656024 -6.83322718 3.41656024 -7 0 C-4.31633121 -1.3418344 -2.84719317 -0.73004953 0 0 Z " fill="#E2C884" transform="translate(369,153)"/>
<path d="M0 0 C2.97 0 5.94 0 9 0 C9 11.55 9 23.1 9 35 C8.67 35 8.34 35 8 35 C8 31.37 8 27.74 8 24 C2.83823591 26.65063562 0.81588958 29.55233127 -1 35 C-1.66 35 -2.32 35 -3 35 C-2.67 32.69 -2.34 30.38 -2 28 C-1.34 28 -0.68 28 0 28 C0.04125 27.401875 0.0825 26.80375 0.125 26.1875 C1.43627657 22.90930858 3.90285562 22.43355887 7 21 C7.02690844 18.37493198 7.04679404 15.75013827 7.0625 13.125 C7.07087891 12.37863281 7.07925781 11.63226563 7.08789062 10.86328125 C7.20688084 6.80154422 7.20688084 6.80154422 6 3 C3.03 5.475 3.03 5.475 0 8 C0 5.36 0 2.72 0 0 Z " fill="#E1C77E" transform="translate(289,214)"/>
<path d="M0 0 C8.05268337 0.67105695 17.16269997 1.44179998 24 6 C23.01 6.33 22.02 6.66 21 7 C20.67 6.67 20.34 6.34 20 6 C18.15108054 5.76636119 16.29511969 5.58696365 14.4375 5.4375 C13.42558594 5.35371094 12.41367187 5.26992187 11.37109375 5.18359375 C10.19740234 5.09271484 10.19740234 5.09271484 9 5 C8.31292445 7.49064888 8 9.37886292 8 12 C1.25 11.125 1.25 11.125 -1 10 C-0.67 8.02 -0.34 6.04 0 4 C0.99 3.67 1.98 3.34 3 3 C3 2.34 3 1.68 3 1 C2.01 0.67 1.02 0.34 0 0 Z " fill="#D9B556" transform="translate(365,194)"/>
<path d="M0 0 C0.66 0.33 1.32 0.66 2 1 C1.34 2.32 0.68 3.64 0 5 C0.99 5.33 1.98 5.66 3 6 C2.125 12.75 2.125 12.75 1 15 C3.64 15 6.28 15 9 15 C7.5 16.125 7.5 16.125 5 17 C2.91907159 16.58210864 0.92964908 15.97924713 -1.10546875 15.37890625 C-3.63996864 14.87200627 -4.86274031 15.65431797 -7 17 C-7.99 16.67 -8.98 16.34 -10 16 C-10 14.35 -10 12.7 -10 11 C-8.02 11.99 -8.02 11.99 -6 13 C-5.67 9.37 -5.34 5.74 -5 2 C-3.68 1.67 -2.36 1.34 -1 1 C-0.67 0.67 -0.34 0.34 0 0 Z " fill="#91BDBE" transform="translate(382,217)"/>
<path d="M0 0 C3.20288575 0.85410287 5.49338805 1.52607269 7.9375 3.8125 C9 6 9 6 8.875 8.625 C8 11 8 11 5 13 C2.3125 12.625 2.3125 12.625 0 12 C-0.33 12.66 -0.66 13.32 -1 14 C-1.33 13.34 -1.66 12.68 -2 12 C-4.34937742 11.0416631 -6.66218055 10.18214554 -9.0625 9.375 C-9.72572266 9.14554688 -10.38894531 8.91609375 -11.07226562 8.6796875 C-12.71259669 8.11324224 -14.35602157 7.55577077 -16 7 C-16 6.67 -16 6.34 -16 6 C-10.65937073 5.0369357 -10.65937073 5.0369357 -8 5 C-6.1875 6.375 -6.1875 6.375 -5 8 C-4.01 8.33 -3.02 8.66 -2 9 C-1.34 7.68 -0.68 6.36 0 5 C0.33 6.32 0.66 7.64 1 9 C2.32 9 3.64 9 5 9 C4.67 7.35 4.34 5.7 4 4 C2.68 3.67 1.36 3.34 0 3 C0 2.01 0 1.02 0 0 Z " fill="#D5B25B" transform="translate(389,200)"/>
<path d="M0 0 C2.31 0 4.62 0 7 0 C6.01 0.33 5.02 0.66 4 1 C4.391875 1.99 4.78375 2.98 5.1875 4 C6.57809952 8.68967699 4.97542563 11.66925919 3 16 C2.34 16 1.68 16 1 16 C0.67 13.03 0.34 10.06 0 7 C-4.48123828 7.71292427 -8.69742362 8.56580787 -13 10 C-13.33 8.68 -13.66 7.36 -14 6 C-8.83955235 4.487455 -5.34001821 3.66499545 0 5 C0 3.35 0 1.7 0 0 Z " fill="#C3B083" transform="translate(361,233)"/>
<path d="M0 0 C0.625 1.875 0.625 1.875 1 4 C-1 6 -1 6 -4.125 6.125 C-5.07375 6.08375 -6.0225 6.0425 -7 6 C-7 6.99 -7 7.98 -7 9 C-8.98 9.33 -10.96 9.66 -13 10 C-14.09658936 6.71023192 -13.79953138 5.28696233 -13 2 C-13.66 1.67 -14.32 1.34 -15 1 C-9.69276568 -0.42705634 -5.46108889 -1.4002792 0 0 Z " fill="#D8AE49" transform="translate(311,194)"/>
<path d="M0 0 C5.76190425 0.16390537 11.53727881 1.21048789 17 3 C18.7265625 5.07421875 18.7265625 5.07421875 20 7 C17.24993392 7.0270203 14.50013454 7.04684883 11.75 7.0625 C10.97269531 7.07087891 10.19539063 7.07925781 9.39453125 7.08789062 C8.26337891 7.09272461 8.26337891 7.09272461 7.109375 7.09765625 C6.07248535 7.10551147 6.07248535 7.10551147 5.01464844 7.11352539 C2.90026102 6.99437971 1.03358485 6.57618237 -1 6 C-1.042721 4.33388095 -1.04063832 2.66617115 -1 1 C-0.67 0.67 -0.34 0.34 0 0 Z " fill="#B5CED1" transform="translate(302,251)"/>
<path d="M0 0 C0.99 1.32 1.98 2.64 3 4 C2.1875 7.25 2.1875 7.25 1 10 C1.99 10 2.98 10 4 10 C3.67 11.32 3.34 12.64 3 14 C9.435 13.505 9.435 13.505 16 13 C16 12.01 16 11.02 16 10 C18.97 9.34 21.94 8.68 25 8 C24 11 24 11 22.0625 12.5 C15.62296296 15.65405896 9.19066078 17.59922173 2 17 C1.34 16.67 0.68 16.34 0 16 C0 10.72 0 5.44 0 0 Z " fill="#D5B660" transform="translate(288,190)"/>
<path d="M0 0 C5.875 1.875 5.875 1.875 7 3 C7.71974571 10.48063575 7.46223951 15.86442068 3 22 C2.67 22 2.34 22 2 22 C1.93941406 20.74703125 1.87882812 19.4940625 1.81640625 18.203125 C1.73197744 16.55207276 1.64733061 14.90103165 1.5625 13.25 C1.52318359 12.425 1.48386719 11.6 1.44335938 10.75 C1.40146484 9.95078125 1.35957031 9.1515625 1.31640625 8.328125 C1.27974854 7.5949707 1.24309082 6.86181641 1.20532227 6.10644531 C0.99885215 3.98822395 0.56867914 2.0480544 0 0 Z " fill="#D6AF48" transform="translate(340,158)"/>
<path d="M0 0 C2.4375 1.5 2.4375 1.5 4 4 C4.5149217 6.90813732 4.33536988 8.98167108 4 12 C2.5 14 2.5 14 1 15 C1.33 12.36 1.66 9.72 2 7 C1.34 8.32 0.68 9.64 0 11 C-0.99 10.67 -1.98 10.34 -3 10 C-2.67 9.01 -2.34 8.02 -2 7 C-2.99 6.67 -3.98 6.34 -5 6 C-5.33 5.01 -5.66 4.02 -6 3 C-6.66 2.67 -7.32 2.34 -8 2 C-7.67 2.99 -7.34 3.98 -7 5 C-8.32 5.33 -9.64 5.66 -11 6 C-8.75142032 -0.26390054 -6.64404259 -0.57276229 0 0 Z " fill="#89BFC3" transform="translate(324,217)"/>
<path d="M0 0 C1.5625 2.625 1.5625 2.625 2 5 C-3.625 6.125 -3.625 6.125 -7 5 C-9.33299825 4.96045766 -11.66708189 4.95598268 -14 5 C-14.33 4.01 -14.66 3.02 -15 2 C-14 0 -14 0 -12 -1.25 C-7.71545957 -2.32113511 -4.05270185 -1.75186514 0 0 Z " fill="#A5C5C9" transform="translate(349,253)"/>
<path d="M0 0 C4.52615993 3.67832017 8.39424999 7.41086363 12 12 C10.63875 11.9690625 10.63875 11.9690625 9.25 11.9375 C6.57327412 11.9889755 4.53011948 12.2215017 2 13 C-0.83374881 9.79663178 -1.5205537 7.21912747 -2 3 C-1.34 2.67 -0.68 2.34 0 2 C0 1.34 0 0.68 0 0 Z " fill="#F5E193" transform="translate(325,138)"/>
<path d="M0 0 C1.70703125 0.890625 1.70703125 0.890625 2.70703125 2.890625 C1.05703125 2.560625 -0.59296875 2.230625 -2.29296875 1.890625 C-0.97296875 3.540625 0.34703125 5.190625 1.70703125 6.890625 C1.37703125 7.550625 1.04703125 8.210625 0.70703125 8.890625 C-0.28296875 8.890625 -1.27296875 8.890625 -2.29296875 8.890625 C-3.9479997 9.9678971 -3.9479997 9.9678971 -5.48046875 11.390625 C-6.87265625 12.628125 -6.87265625 12.628125 -8.29296875 13.890625 C-8.29296875 12.570625 -8.29296875 11.250625 -8.29296875 9.890625 C-7.63296875 9.890625 -6.97296875 9.890625 -6.29296875 9.890625 C-5.96296875 8.570625 -5.63296875 7.250625 -5.29296875 5.890625 C-5.89109375 6.550625 -6.48921875 7.210625 -7.10546875 7.890625 C-9.29296875 9.890625 -9.29296875 9.890625 -12.29296875 9.890625 C-12.29296875 10.550625 -12.29296875 11.210625 -12.29296875 11.890625 C-12.95296875 11.890625 -13.61296875 11.890625 -14.29296875 11.890625 C-13.00306958 8.02092749 -11.10089945 6.73616206 -7.98046875 4.140625 C-6.53220703 2.91085938 -6.53220703 2.91085938 -5.0546875 1.65625 C-2.29296875 -0.109375 -2.29296875 -0.109375 0 0 Z " fill="#F4E39E" transform="translate(361.29296875,130.109375)"/>
<path d="M0 0 C4.66666667 2.33333333 9.33333333 4.66666667 14 7 C14 7.33 14 7.66 14 8 C10.57261085 8.30241669 9.04068367 8.02158725 5.9375 6.375 C3.13256109 4.6476683 3.13256109 4.6476683 0.625 5.8125 C0.08875 6.204375 -0.4475 6.59625 -1 7 C-1 7.99 -1 8.98 -1 10 C0.98 10.66 2.96 11.32 5 12 C5 12.99 5 13.98 5 15 C1.00499382 13.6302836 -1.80009492 11.74277578 -5 9 C-3.7508258 5.54074837 -2.32472205 2.85306797 0 0 Z " fill="#ECDCA0" transform="translate(259,247)"/>
<path d="M0 0 C0.99 0 1.98 0 3 0 C3 1.65 3 3.3 3 5 C4.32 5.33 5.64 5.66 7 6 C7 4.02 7 2.04 7 0 C7.99 0 8.98 0 10 0 C10 3.3 10 6.6 10 10 C8.741875 10.04125 7.48375 10.0825 6.1875 10.125 C5.47980469 10.14820313 4.77210938 10.17140625 4.04296875 10.1953125 C2 10 2 10 -1 8 C-1.8125 5.5625 -1.8125 5.5625 -2 3 C-1.34 2.01 -0.68 1.02 0 0 Z " fill="#AC9863" transform="translate(367,239)"/>
<path d="M0 0 C5.81435334 0.28362699 9.19901923 2.81696188 13 7 C14.203125 9.19921875 14.203125 9.19921875 15 11 C13.02 10.34 11.04 9.68 9 9 C8.67 10.32 8.34 11.64 8 13 C4.6146459 8.91422781 1.68861844 5.06585532 0 0 Z " fill="#EBD28D" transform="translate(359,132)"/>
<path d="M0 0 C1.0257259 4.41062136 1.03684712 6.92630576 -1 11 C-2.9375 10.3125 -2.9375 10.3125 -5 9 C-5.37309899 7.34178227 -5.70700977 5.67422986 -6 4 C-6.99 3.34 -7.98 2.68 -9 2 C-9 1.34 -9 0.68 -9 0 C-5.67465243 -1.10844919 -3.37817425 -0.84454356 0 0 Z " fill="#6AADB5" transform="translate(377,219)"/>
<path d="M0 0 C4.18837725 2.09418863 5.02950186 2.9604788 7 7 C7 7.99 7 8.98 7 10 C4.625 12.0625 4.625 12.0625 2 14 C1.34 14.66 0.68 15.32 0 16 C0 10.72 0 5.44 0 0 Z " fill="#E4CB82" transform="translate(314,128)"/>
<path d="M0 0 C1.134375 0.020625 2.26875 0.04125 3.4375 0.0625 C4.4275 2.0425 5.4175 4.0225 6.4375 6.0625 C5.7775 6.7225 5.1175 7.3825 4.4375 8.0625 C4.4375 7.4025 4.4375 6.7425 4.4375 6.0625 C2.4575 6.3925 0.4775 6.7225 -1.5625 7.0625 C-1.5625 6.0725 -1.5625 5.0825 -1.5625 4.0625 C-2.2225 4.0625 -2.8825 4.0625 -3.5625 4.0625 C-3.5625 7.3625 -3.5625 10.6625 -3.5625 14.0625 C-2.9025 14.0625 -2.2425 14.0625 -1.5625 14.0625 C-1.5625 14.7225 -1.5625 15.3825 -1.5625 16.0625 C-2.5525 16.0625 -3.5425 16.0625 -4.5625 16.0625 C-4.58935095 13.58326199 -4.60926547 11.1043116 -4.625 8.625 C-4.63756836 7.56442383 -4.63756836 7.56442383 -4.65039062 6.48242188 C-4.65903588 4.67556441 -4.61470011 2.86862397 -4.5625 1.0625 C-3.5625 0.0625 -3.5625 0.0625 0 0 Z " fill="#D2C390" transform="translate(305.5625,232.9375)"/>
<path d="M0 0 C0.99 0.33 1.98 0.66 3 1 C3.33 2.65 3.66 4.3 4 6 C5.65 6 7.3 6 9 6 C9 6.66 9 7.32 9 8 C9.66 8.33 10.32 8.66 11 9 C6.67265609 11.22923777 3.71599818 10.92470553 -1 10 C-1.125 2.25 -1.125 2.25 0 0 Z " fill="#6EABB0" transform="translate(349,222)"/>
<path d="M0 0 C-2.61941217 1.74627478 -4.03824877 2.38722388 -7 3 C-7 3.66 -7 4.32 -7 5 C-3.37 5.66 0.26 6.32 4 7 C4 7.33 4 7.66 4 8 C-2.09781001 8.22084624 -7.21642935 8.01167675 -13 6 C-13.33 4.02 -13.66 2.04 -14 0 C-8.97703996 -1.13016601 -5.02125926 -0.77916092 0 0 Z " fill="#DEB956" transform="translate(277,257)"/>
<path d="M0 0 C0.99 0.33 1.98 0.66 3 1 C2.85848172 3.0836309 2.71162064 5.16689938 2.5625 7.25 C2.48128906 8.41015625 2.40007812 9.5703125 2.31640625 10.765625 C2.06752213 13.30977376 1.71885058 15.55953248 1 18 C0.34 18 -0.32 18 -1 18 C-2.50156874 14.99686252 -2.09281204 12.20932478 -2.0625 8.875 C-2.05347656 7.59367188 -2.04445313 6.31234375 -2.03515625 4.9921875 C-2.02355469 4.00476563 -2.01195312 3.01734375 -2 2 C-1.34 2 -0.68 2 0 2 C0 1.34 0 0.68 0 0 Z " fill="#63A5AB" transform="translate(340,213)"/>
<path d="M0 0 C0.66 0.66 1.32 1.32 2 2 C-1.3 1.67 -4.6 1.34 -8 1 C-7.67 3.31 -7.34 5.62 -7 8 C-2.545 7.505 -2.545 7.505 2 7 C0.375 9 0.375 9 -2 11 C-5.25 11.25 -5.25 11.25 -8 11 C-11.18333333 4.63333333 -11.18333333 4.63333333 -10.3125 1.625 C-7.34101273 -2.05398424 -4.27274525 -0.83928925 0 0 Z " fill="#D8BD82" transform="translate(322,238)"/>
<path d="M0 0 C-0.14049518 1.47968324 -0.28754826 2.95874516 -0.4375 4.4375 C-0.51871094 5.26121094 -0.59992188 6.08492187 -0.68359375 6.93359375 C-1 9 -1 9 -2 10 C-4.33297433 10.04092937 -6.66705225 10.04241723 -9 10 C-7.57895263 4.78949296 -6.03245847 0 0 0 Z " fill="#DEB957" transform="translate(297,238)"/>
<path d="M0 0 C2.97 0.33 5.94 0.66 9 1 C9 1.99 9 2.98 9 4 C7.68 4.33 6.36 4.66 5 5 C5 5.66 5 6.32 5 7 C4.01 7 3.02 7 2 7 C2 7.66 2 8.32 2 9 C0.02 9 -1.96 9 -4 9 C-3.34 8.67 -2.68 8.34 -2 8 C-1.31527335 6.11235097 -1.31527335 6.11235097 -0.875 3.9375 C-0.58625 2.638125 -0.2975 1.33875 0 0 Z " fill="#D1A642" transform="translate(283,254)"/>
<path d="M0 0 C1.98 0 3.96 0 6 0 C6 5.61 6 11.22 6 17 C5.34 17 4.68 17 4 17 C2.4888005 11.96266834 3.35400227 7.11828973 4 2 C3.34 2 2.68 2 2 2 C2 4.64 2 7.28 2 10 C1.34 10 0.68 10 0 10 C0 6.7 0 3.4 0 0 Z " fill="#8AB9BC" transform="translate(306,213)"/>
<path d="M0 0 C1.32 0 2.64 0 4 0 C4 2.31 4 4.62 4 7 C3.67 6.34 3.34 5.68 3 5 C2.38125 5.495 1.7625 5.99 1.125 6.5 C-1 8 -1 8 -3 8 C-3.66 9.32 -4.32 10.64 -5 12 C-6.1875 9.25 -6.1875 9.25 -7 6 C-5.875 3.625 -5.875 3.625 -4 2 C-2.68 2 -1.36 2 0 2 C0 1.34 0 0.68 0 0 Z " fill="#69B7BE" transform="translate(388,215)"/>
<path d="M0 0 C2.64 0 5.28 0 8 0 C8 1.65 8 3.3 8 5 C9.32 5.66 10.64 6.32 12 7 C12 7.99 12 8.98 12 10 C9.525 9.01 9.525 9.01 7 8 C6.34 8.66 5.68 9.32 5 10 C3.4375 8.25 3.4375 8.25 2 6 C2.3125 3.75 2.3125 3.75 3 2 C2.01 2.33 1.02 2.66 0 3 C0 2.01 0 1.02 0 0 Z " fill="#E2C572" transform="translate(334,151)"/>
<path d="M0 0 C3.28993102 -0.36554789 4.63099885 -0.26218503 7.375 1.6875 C9 4 9 4 8.8125 6.6875 C8 9 8 9 7 10 C5.33382885 10.04063832 3.66611905 10.042721 2 10 C2 9.01 2 8.02 2 7 C3.65 7 5.3 7 7 7 C7 6.34 7 5.68 7 5 C4.69 5 2.38 5 0 5 C0 3.35 0 1.7 0 0 Z " fill="#AA9462" transform="translate(385,239)"/>
<path d="M0 0 C0.66 0.33 1.32 0.66 2 1 C1.34 2.32 0.68 3.64 0 5 C0.99 5.33 1.98 5.66 3 6 C2.67 8.31 2.34 10.62 2 13 C0.125 12.75 0.125 12.75 -2 12 C-4.14849825 8.9468709 -4.50301611 5.64454851 -5 2 C-4.360625 1.855625 -3.72125 1.71125 -3.0625 1.5625 C-1.02454854 1.18992819 -1.02454854 1.18992819 0 0 Z " fill="#70B4BB" transform="translate(382,217)"/>
<path d="M0 0 C3.26460973 1.80412643 4.88929795 2.83394693 7 6 C6.8125 8.125 6.8125 8.125 6 10 C5.01 10.33 4.02 10.66 3 11 C-1.875 6.25 -1.875 6.25 -3 4 C-1.68 4 -0.36 4 1 4 C0.67 2.68 0.34 1.36 0 0 Z " fill="#EEDE99" transform="translate(386,155)"/>
<path d="M0 0 C6.15234375 -0.09765625 6.15234375 -0.09765625 8 0 C9 1 9 1 9.0625 4.0625 C9.041875 5.031875 9.02125 6.00125 9 7 C8.34 6.34 7.68 5.68 7 5 C5.02 5.99 3.04 6.98 1 8 C-0.35439668 5.29120665 -0.06501451 2.99066732 0 0 Z " fill="#E4C363" transform="translate(288,113)"/>
<path d="M0 0 C2.0625 0.4375 2.0625 0.4375 4 1 C3.01 1 2.02 1 1 1 C1 1.66 1 2.32 1 3 C2.32 3.66 3.64 4.32 5 5 C4.01 6.32 3.02 7.64 2 9 C1.67 8.01 1.34 7.02 1 6 C0.34 5.67 -0.32 5.34 -1 5 C-0.98839844 5.62648437 -0.97679687 6.25296875 -0.96484375 6.8984375 C-0.95582031 7.71570313 -0.94679688 8.53296875 -0.9375 9.375 C-0.92589844 10.18710938 -0.91429687 10.99921875 -0.90234375 11.8359375 C-1 14 -1 14 -2 16 C-1.01 16.33 -0.02 16.66 1 17 C-0.32 17 -1.64 17 -3 17 C-4.45021541 7.02321685 -4.45021541 7.02321685 -2.625 2.875 C-1.77509601 1.89434155 -0.91761315 0.91761315 0 0 Z " fill="#A0CBCB" transform="translate(350,217)"/>
<path d="M0 0 C1.32 0.33 2.64 0.66 4 1 C2.68 1.33 1.36 1.66 0 2 C0 3.65 0 5.3 0 7 C-0.99 7 -1.98 7 -3 7 C-2.98839844 8.24136719 -2.97679687 9.48273438 -2.96484375 10.76171875 C-2.95546132 12.40364432 -2.9463616 14.04557153 -2.9375 15.6875 C-2.92912109 16.50412109 -2.92074219 17.32074219 -2.91210938 18.16210938 C-2.89557949 22.24499084 -2.96964902 26.01651707 -4 30 C-4.33 30 -4.66 30 -5 30 C-5.14584726 26.12539922 -5.23425444 22.25150883 -5.3125 18.375 C-5.35439453 17.28058594 -5.39628906 16.18617188 -5.43945312 15.05859375 C-5.57756696 5.94308036 -5.57756696 5.94308036 -2.48046875 2.2265625 C-1.66191406 1.49179688 -0.84335937 0.75703125 0 0 Z " fill="#F2D78B" transform="translate(319,138)"/>
<path d="M0 0 C1.4409026 0.22957777 2.87777015 0.48456354 4.3125 0.75 C5.11300781 0.88921875 5.91351563 1.0284375 6.73828125 1.171875 C9 2 9 2 12 6 C7.71 6 3.42 6 -1 6 C-0.67 4.02 -0.34 2.04 0 0 Z " fill="#AACECE" transform="translate(310,252)"/>
<path d="M0 0 C8.05268337 0.67105695 17.16269997 1.44179998 24 6 C23.01 6.33 22.02 6.66 21 7 C20.67 6.67 20.34 6.34 20 6 C17.14772981 5.43655256 14.30368392 4.91865055 11.4375 4.4375 C10.63119141 4.29892578 9.82488281 4.16035156 8.99414062 4.01757812 C6.99670189 3.67482237 4.99842528 3.33695612 3 3 C3 2.34 3 1.68 3 1 C2.01 0.67 1.02 0.34 0 0 Z " fill="#D9BC74" transform="translate(365,194)"/>
<path d="M0 0 C6.93 0.495 6.93 0.495 14 1 C14 1.33 14 1.66 14 2 C12.35 2 10.7 2 9 2 C9 2.66 9 3.32 9 4 C7.625 5.625 7.625 5.625 6 7 C5.34 7 4.68 7 4 7 C0 2.52941176 0 2.52941176 0 0 Z " fill="#BDD7DB" transform="translate(347,251)"/>
<path d="M0 0 C1.051875 -0.00386719 1.051875 -0.00386719 2.125 -0.0078125 C4 0.125 4 0.125 6 1.125 C5.67 4.425 5.34 7.725 5 11.125 C4.67 11.125 4.34 11.125 4 11.125 C4 8.155 4 5.185 4 2.125 C3.01 2.62 3.01 2.62 2 3.125 C2 4.775 2 6.425 2 8.125 C1.01 8.125 0.02 8.125 -1 8.125 C-0.67 6.805 -0.34 5.485 0 4.125 C-0.99 4.125 -1.98 4.125 -3 4.125 C-3 3.465 -3 2.805 -3 2.125 C-3.99 1.795 -4.98 1.465 -6 1.125 C-3.75487738 0.00243869 -2.48543351 -0.00913762 0 0 Z " fill="#D9C8A7" transform="translate(373,236.875)"/>
<path d="M0 0 C1.98 0 3.96 0 6 0 C6 1.98 6 3.96 6 6 C4.68 6 3.36 6 2 6 C1.34 4.02 0.68 2.04 0 0 Z M-3 2 C-2.01 2 -1.02 2 0 2 C-0.33 3.32 -0.66 4.64 -1 6 C-1.99 6 -2.98 6 -4 6 C-3.67 4.68 -3.34 3.36 -3 2 Z " fill="#DBB047" transform="translate(388,203)"/>
<path d="M0 0 C0.33 0 0.66 0 1 0 C1.05407567 2.58361518 1.093707 5.16609255 1.125 7.75 C1.14175781 8.47960937 1.15851563 9.20921875 1.17578125 9.9609375 C1.24033942 17.06233639 1.24033942 17.06233639 -1 20 C-1.99 20.33 -2.98 20.66 -4 21 C-3.5020163 17.26512223 -3.12508244 15.18762365 -1 12 C-0.54084493 9.03157342 -0.54084493 9.03157342 -0.375 5.8125 C-0.30023438 4.72582031 -0.22546875 3.63914063 -0.1484375 2.51953125 C-0.09945313 1.68808594 -0.05046875 0.85664063 0 0 Z " fill="#EBD367" transform="translate(347,161)"/>
<path d="M0 0 C1.65 0 3.3 0 5 0 C4.67 4.62 4.34 9.24 4 14 C2 13 2 13 -1 11 C-0.67 10.01 -0.34 9.02 0 8 C0.66 8 1.32 8 2 8 C2.33 6.35 2.66 4.7 3 3 C1.68 2.67 0.36 2.34 -1 2 C-0.67 1.34 -0.34 0.68 0 0 Z " fill="#76AAA2" transform="translate(389,212)"/>
<path d="M0 0 C2.58463502 0.28250662 5.16731135 0.5756226 7.75 0.875 C8.47960937 0.95363281 9.20921875 1.03226563 9.9609375 1.11328125 C13.66777257 1.55136176 16.80452172 1.9986215 20 4 C18.34385343 4.38218767 16.67542976 4.71395102 15 5 C14.67 4.67 14.34 4.34 14 4 C12.31816052 3.76712992 10.6287584 3.58735834 8.9375 3.4375 C7.55884766 3.31181641 7.55884766 3.31181641 6.15234375 3.18359375 C5.08693359 3.09271484 5.08693359 3.09271484 4 3 C3.67 3.99 3.34 4.98 3 6 C3 5.01 3 4.02 3 3 C2.01 2.67 1.02 2.34 0 2 C0 1.34 0 0.68 0 0 Z " fill="#F0DFA9" transform="translate(347,190)"/>
<path d="M0 0 C2.64 0.33 5.28 0.66 8 1 C7.67 2.32 7.34 3.64 7 5 C6.67 4.34 6.34 3.68 6 3 C3.03 5.475 3.03 5.475 0 8 C0 5.36 0 2.72 0 0 Z " fill="#E8C969" transform="translate(289,214)"/>
<path d="M0 0 C2.31 0 4.62 0 7 0 C7 1.32 7 2.64 7 4 C6.05125 4.12375 5.1025 4.2475 4.125 4.375 C0.91332809 4.71687177 0.91332809 4.71687177 -1 7 C-0.67 4.69 -0.34 2.38 0 0 Z " fill="#CAB77A" transform="translate(345,234)"/>
<path d="M0 0 C2.97 0.33 5.94 0.66 9 1 C8.67 2.32 8.34 3.64 8 5 C6.68 5.33 5.36 5.66 4 6 C3.67 4.68 3.34 3.36 3 2 C1.68 2.33 0.36 2.66 -1 3 C-0.67 2.01 -0.34 1.02 0 0 Z " fill="#66AFB2" transform="translate(359,222)"/>
<path d="M0 0 C1.5625 1.1875 1.5625 1.1875 3 3 C2.875 5.5625 2.875 5.5625 2 8 C-1 10 -1 10 -3.6875 9.625 C-4.450625 9.41875 -5.21375 9.2125 -6 9 C-6.33 9.66 -6.66 10.32 -7 11 C-7.33 10.34 -7.66 9.68 -8 9 C-8.99 8.34 -9.98 7.68 -11 7 C-7.04 7 -3.08 7 1 7 C0.67 4.69 0.34 2.38 0 0 Z " fill="#D2C18C" transform="translate(395,203)"/>
<path d="M0 0 C0.66 0 1.32 0 2 0 C1.67 1.32 1.34 2.64 1 4 C0.34 4 -0.32 4 -1 4 C-1 5.65 -1 7.3 -1 9 C-1.99 9.495 -1.99 9.495 -3 10 C-3.99 9.67 -4.98 9.34 -6 9 C-5.67 7.35 -5.34 5.7 -5 4 C-4.01 4 -3.02 4 -2 4 C-1.34 2.68 -0.68 1.36 0 0 Z " fill="#F0D978" transform="translate(354,136)"/>
<path d="M0 0 C1.9375 0.625 1.9375 0.625 4 2 C4.75 5.125 4.75 5.125 5 8 C3.0625 7.625 3.0625 7.625 1 7 C0.67 6.34 0.34 5.68 0 5 C-0.99 5.495 -0.99 5.495 -2 6 C-2 4.68 -2 3.36 -2 2 C-1.34 2 -0.68 2 0 2 C0 1.34 0 0.68 0 0 Z " fill="#E2C88C" transform="translate(306,241)"/>
<path d="M0 0 C2.475 0.99 2.475 0.99 5 2 C3.35 3.65 1.7 5.3 0 7 C-0.99 6.67 -1.98 6.34 -3 6 C-2.42655063 3.13275314 -2.1385485 2.1385485 0 0 Z " fill="#EFD176" transform="translate(260,251)"/>
<path d="M0 0 C0 0.66 0 1.32 0 2 C-3.67452438 4.8394052 -5.26886581 6 -10 6 C-9.25 3.5625 -9.25 3.5625 -8 1 C-5.20408963 -0.21156116 -3.12576931 0 0 0 Z " fill="#E7C664" transform="translate(368,195)"/>
<path d="M0 0 C3 0.125 3 0.125 4 1.125 C4.04092937 3.45797433 4.04241723 5.79205225 4 8.125 C3.67 8.125 3.34 8.125 3 8.125 C3 6.145 3 4.165 3 2.125 C1.68 2.455 0.36 2.785 -1 3.125 C-1.33 4.775 -1.66 6.425 -2 8.125 C-2.66 8.125 -3.32 8.125 -4 8.125 C-4.04241723 5.79205225 -4.04092937 3.45797433 -4 1.125 C-3 0.125 -3 0.125 0 0 Z " fill="#E3CD8D" transform="translate(356,151.875)"/>
<path d="M0 0 C2.875 0.25 2.875 0.25 6 1 C7.375 3.0625 7.375 3.0625 8 5 C6.02 4.34 4.04 3.68 2 3 C1.67 4.32 1.34 5.64 1 7 C0.34 6.34 -0.32 5.68 -1 5 C-0.625 2.375 -0.625 2.375 0 0 Z " fill="#E4CC81" transform="translate(366,138)"/>
<path d="M0 0 C0.99 0.99 1.98 1.98 3 3 C3.99 3 4.98 3 6 3 C6 3.99 6 4.98 6 6 C3 8.1875 3 8.1875 0 10 C0 6.7 0 3.4 0 0 Z " fill="#ECCD64" transform="translate(315,132)"/>
<path d="M0 0 C1.21236328 0.02707031 1.21236328 0.02707031 2.44921875 0.0546875 C3.37154297 0.08949219 3.37154297 0.08949219 4.3125 0.125 C3.6525 0.785 2.9925 1.445 2.3125 2.125 C1.3225 2.125 0.3325 2.125 -0.6875 2.125 C-0.6875 3.775 -0.6875 5.425 -0.6875 7.125 C-1.3475 7.125 -2.0075 7.125 -2.6875 7.125 C-2.6875 6.135 -2.6875 5.145 -2.6875 4.125 C-5.1625 3.135 -5.1625 3.135 -7.6875 2.125 C-4.48369983 -0.01086678 -3.66810033 -0.10632175 0 0 Z " fill="#C9DDDC" transform="translate(335.6875,250.875)"/>
<path d="M0 0 C1.45922693 0.11409593 2.91740598 0.24165544 4.375 0.375 C5.59316406 0.47941406 5.59316406 0.47941406 6.8359375 0.5859375 C9 1 9 1 11 3 C11 4.32 11 5.64 11 7 C10.01 7 9.02 7 8 7 C8 6.01 8 5.02 8 4 C7.34 4 6.68 4 6 4 C5.34 3.34 4.68 2.68 4 2 C2.68252676 1.30251417 1.35085807 0.63040043 0 0 Z " fill="#A98F52" transform="translate(349,240)"/>
<path d="M0 0 C2.31 0.33 4.62 0.66 7 1 C7.33 1.99 7.66 2.98 8 4 C1.25 6.125 1.25 6.125 -1 5 C-0.67 3.35 -0.34 1.7 0 0 Z " fill="#6BB6BD" transform="translate(356,218)"/>
<path d="M0 0 C0.33 1.32 0.66 2.64 1 4 C4.96 4.33 8.92 4.66 13 5 C12.67 5.66 12.34 6.32 12 7 C3.42857143 7.14285714 3.42857143 7.14285714 0 6 C0 4.02 0 2.04 0 0 Z " fill="#ECDB98" transform="translate(342,195)"/>
<path d="M0 0 C0.928125 0.28875 1.85625 0.5775 2.8125 0.875 C7.79551783 2.31043723 12.89345169 3.13197913 18 4 C18 4.33 18 4.66 18 5 C11.98001986 5.21802745 6.64051572 5.28020848 1 3 C0.67 2.01 0.34 1.02 0 0 Z " fill="#D8BC84" transform="translate(263,260)"/>
<path d="M0 0 C5.75 0.875 5.75 0.875 8 2 C7.67 2.99 7.34 3.98 7 5 C4.69 5 2.38 5 0 5 C0 3.35 0 1.7 0 0 Z " fill="#B1D5D9" transform="translate(371,253)"/>
<path d="M0 0 C0.99 0.33 1.98 0.66 3 1 C2.67 3.31 2.34 5.62 2 8 C0.35 8 -1.3 8 -3 8 C-3 6.68 -3 5.36 -3 4 C-2.01 3.34 -1.02 2.68 0 2 C0 1.34 0 0.68 0 0 Z " fill="#63A8B0" transform="translate(316,219)"/>
<path d="M0 0 C0.66 0 1.32 0 2 0 C1.67 1.65 1.34 3.3 1 5 C-2.3 4.67 -5.6 4.34 -9 4 C-9 3.34 -9 2.68 -9 2 C-6.94921875 1.77213542 -4.8984375 1.54427083 -2.84765625 1.31640625 C-0.98859771 1.18113386 -0.98859771 1.18113386 0 0 Z " fill="#E3CA85" transform="translate(363,199)"/>
<path d="M0 0 C2.475 0.495 2.475 0.495 5 1 C4.01 1.495 4.01 1.495 3 2 C3 8.6 3 15.2 3 22 C2.67 22 2.34 22 2 22 C1.93941406 20.74703125 1.87882812 19.4940625 1.81640625 18.203125 C1.73197744 16.55207276 1.64733061 14.90103165 1.5625 13.25 C1.52318359 12.425 1.48386719 11.6 1.44335938 10.75 C1.40146484 9.95078125 1.35957031 9.1515625 1.31640625 8.328125 C1.27974854 7.5949707 1.24309082 6.86181641 1.20532227 6.10644531 C0.99885215 3.98822395 0.56867914 2.0480544 0 0 Z " fill="#D5B35B" transform="translate(340,158)"/>
<path d="M0 0 C2.64 0 5.28 0 8 0 C7.67 1.65 7.34 3.3 7 5 C6.01 5.33 5.02 5.66 4 6 C3.34 5.34 2.68 4.68 2 4 C2.33 3.34 2.66 2.68 3 2 C2.01 2.33 1.02 2.66 0 3 C0 2.01 0 1.02 0 0 Z " fill="#EDCD67" transform="translate(334,151)"/>
<path d="M0 0 C3.39273206 0.13570928 5.91870895 1.05623632 9.125 2.125 C8.465 2.125 7.805 2.125 7.125 2.125 C7.455 3.115 7.785 4.105 8.125 5.125 C6.6858866 4.84140113 5.24874482 4.54778601 3.8125 4.25 C3.01199219 4.08757812 2.21148437 3.92515625 1.38671875 3.7578125 C-0.875 3.125 -0.875 3.125 -3.875 1.125 C-2.875 0.125 -2.875 0.125 0 0 Z " fill="#CDDBD8" transform="translate(378.875,250.875)"/>
<path d="M0 0 C0.66 0.33 1.32 0.66 2 1 C2 1.99 2 2.98 2 4 C2.66 4 3.32 4 4 4 C4 4.66 4 5.32 4 6 C4.66 6 5.32 6 6 6 C6 6.66 6 7.32 6 8 C4.35 8 2.7 8 1 8 C0.67 7.34 0.34 6.68 0 6 C-3.02934491 5.34227572 -3.02934491 5.34227572 -6 5 C-6 4.67 -6 4.34 -6 4 C-3.69 4 -1.38 4 1 4 C0.67 2.68 0.34 1.36 0 0 Z " fill="#CFBC9C" transform="translate(353,241)"/>
<path d="M0 0 C4.75 -0.125 4.75 -0.125 7 1 C6.67 1.99 6.34 2.98 6 4 C4.02 4.33 2.04 4.66 0 5 C0 3.35 0 1.7 0 0 Z " fill="#A88738" transform="translate(385,239)"/>
<path d="M0 0 C0.33 1.32 0.66 2.64 1 4 C1.66 4 2.32 4 3 4 C2.67 4.99 2.34 5.98 2 7 C-0.97 6.505 -0.97 6.505 -4 6 C-4 4.68 -4 3.36 -4 2 C-2.68 1.34 -1.36 0.68 0 0 Z " fill="#71B0BD" transform="translate(367,226)"/>
<path d="M0 0 C1.65 0.33 3.3 0.66 5 1 C4.67 1.66 4.34 2.32 4 3 C3.01 3 2.02 3 1 3 C1 3.99 1 4.98 1 6 C0 8.1875 0 8.1875 -1 10 C-2.1875 7.25 -2.1875 7.25 -3 4 C-1.625 1.625 -1.625 1.625 0 0 Z " fill="#68A9B1" transform="translate(384,217)"/>
<path d="M0 0 C0.99 0.33 1.98 0.66 3 1 C2.67 1.66 2.34 2.32 2 3 C1.73044167 5.33189345 1.55492623 7.66321507 1.37890625 10.00390625 C1.25386719 10.66261719 1.12882812 11.32132813 1 12 C0.01 12.495 0.01 12.495 -1 13 C-1.02696365 11.20841511 -1.04637917 9.41671527 -1.0625 7.625 C-1.07410156 6.62726563 -1.08570313 5.62953125 -1.09765625 4.6015625 C-1 2 -1 2 0 0 Z " fill="#66AFB5" transform="translate(340,213)"/>
<path d="M0 0 C1.32 0.33 2.64 0.66 4 1 C4.33 2.98 4.66 4.96 5 7 C3.35 6.67 1.7 6.34 0 6 C0.185625 5.38125 0.37125 4.7625 0.5625 4.125 C1.23686176 1.95839822 1.23686176 1.95839822 0 0 Z " fill="#DBB63D" transform="translate(354,160)"/>
<path d="M0 0 C1.65 0.99 3.3 1.98 5 3 C4.67 4.65 4.34 6.3 4 8 C1.97954558 7.39816251 -0.02111039 6.72693904 -2 6 C-2.33 5.34 -2.66 4.68 -3 4 C-1.68 4 -0.36 4 1 4 C0.67 2.68 0.34 1.36 0 0 Z " fill="#EAD286" transform="translate(386,155)"/>
<path d="M0 0 C0.66 0 1.32 0 2 0 C2.08090971 1.62418745 2.13914995 3.24951745 2.1875 4.875 C2.22230469 5.77992188 2.25710938 6.68484375 2.29296875 7.6171875 C2.19628906 8.40351563 2.09960938 9.18984375 2 10 C1.01 10.66 0.02 11.32 -1 12 C-1.33 10.68 -1.66 9.36 -2 8 C-1.34 8 -0.68 8 0 8 C0 5.36 0 2.72 0 0 Z " fill="#60ADB6" transform="translate(308,215)"/>
<path d="M0 0 C3.73584906 1.47169811 3.73584906 1.47169811 5 4 C4.01 4.33 3.02 4.66 2 5 C1.34 5.66 0.68 6.32 0 7 C-2 4 -2 4 -2 1 C-1.34 0.67 -0.68 0.34 0 0 Z " fill="#D5B45C" transform="translate(377,147)"/>
<path d="M0 0 C0.66 0.33 1.32 0.66 2 1 C1.34 1.66 0.68 2.32 0 3 C0.99 3.33 1.98 3.66 3 4 C3 4.66 3 5.32 3 6 C1.02 6 -0.96 6 -3 6 C-3.33 5.01 -3.66 4.02 -4 3 C-3 1 -3 1 0 0 Z " fill="#9EC0C1" transform="translate(338,252)"/>
<path d="M0 0 C1.125 4.75 1.125 4.75 0 7 C-0.99 6.67 -1.98 6.34 -3 6 C-2.34 6 -1.68 6 -1 6 C-1 5.01 -1 4.02 -1 3 C-2.65 3 -4.3 3 -6 3 C-6 2.34 -6 1.68 -6 1 C-3 0 -3 0 0 0 Z " fill="#CEE4E1" transform="translate(395,251)"/>
<path d="M0 0 C0.66 0 1.32 0 2 0 C2 0.99 2 1.98 2 3 C4.64 3 7.28 3 10 3 C8 5 8 5 6.0546875 5.1953125 C4.03645833 5.13020833 2.01822917 5.06510417 0 5 C0 3.35 0 1.7 0 0 Z " fill="#9B854C" transform="translate(345,243)"/>
<path d="M0 0 C0.33 0.99 0.66 1.98 1 3 C-2.8063457 2.32829194 -6.35206816 1.27253436 -10 0 C-10 -0.33 -10 -0.66 -10 -1 C-3.38086957 -2.50434783 -3.38086957 -2.50434783 0 0 Z " fill="#D8B879" transform="translate(383,207)"/>
<path d="M0 0 C-2.36292656 2.52588702 -3.66462511 3.88820837 -7 5 C-7.66 4.67 -8.32 4.34 -9 4 C-9 3.01 -9 2.02 -9 1 C-2.25 -1.125 -2.25 -1.125 0 0 Z " fill="#DAB955" transform="translate(313,199)"/>
<path d="M0 0 C2.375 0.3125 2.375 0.3125 5 1 C5.66 1.99 6.32 2.98 7 4 C3.86650268 5.04449911 3.01031744 4.93423645 0 4 C0 2.68 0 1.36 0 0 Z " fill="#9FBBB7" transform="translate(301,253)"/>
<path d="M0 0 C0.66 0 1.32 0 2 0 C2.33 2.97 2.66 5.94 3 9 C2.01 9 1.02 9 0 9 C0 6.03 0 3.06 0 0 Z " fill="#AE9661" transform="translate(380,240)"/>
<path d="M0 0 C-0.33 2.64 -0.66 5.28 -1 8 C-1.99 7.34 -2.98 6.68 -4 6 C-4.1875 3.375 -4.1875 3.375 -4 1 C-2 0 -2 0 0 0 Z " fill="#E8C972" transform="translate(346,183)"/>
<path d="M0 0 C2.31 0 4.62 0 7 0 C2.25 4.875 2.25 4.875 0 6 C0 4.02 0 2.04 0 0 Z " fill="#EBCC72" transform="translate(288,113)"/>
<path d="M0 0 C1.65 0.33 3.3 0.66 5 1 C3.3125 3.5 3.3125 3.5 1 6 C-1.75 6.3125 -1.75 6.3125 -4 6 C-4 5.34 -4 4.68 -4 4 C-2.68 3.34 -1.36 2.68 0 2 C0 1.34 0 0.68 0 0 Z " fill="#E8C252" transform="translate(319,240)"/>
<path d="M0 0 C0.99 0.495 0.99 0.495 2 1 C2 2.65 2 4.3 2 6 C3.65 6.33 5.3 6.66 7 7 C7 7.66 7 8.32 7 9 C5.00045254 9.04254356 2.99958364 9.04080783 1 9 C0 8 0 8 -0.09765625 6.15234375 C-0.06510417 4.1015625 -0.03255208 2.05078125 0 0 Z " fill="#E3D798" transform="translate(352,161)"/>
<path d="M0 0 C1.32 0.66 2.64 1.32 4 2 C3.67 2.99 3.34 3.98 3 5 C2.34 5 1.68 5 1 5 C1.33 6.32 1.66 7.64 2 9 C0.68 8.34 -0.64 7.68 -2 7 C-1.34 6.67 -0.68 6.34 0 6 C0 4.02 0 2.04 0 0 Z " fill="#DCC575" transform="translate(374,143)"/>
<path d="M0 0 C1 2 2 4 3 6 C1.68 6 0.36 6 -1 6 C-1.66 6.66 -2.32 7.32 -3 8 C-3.66 6.68 -4.32 5.36 -5 4 C-4.0409375 3.8453125 -4.0409375 3.8453125 -3.0625 3.6875 C-2.381875 3.460625 -1.70125 3.23375 -1 3 C-0.67 2.01 -0.34 1.02 0 0 Z " fill="#96C8CF" transform="translate(318,223)"/>
<path d="M0 0 C0 1.32 0 2.64 0 4 C-1.65 4 -3.3 4 -5 4 C-5.33 3.01 -5.66 2.02 -6 1 C-4 0 -4 0 0 0 Z " fill="#D8AE4D" transform="translate(368,155)"/>
<path d="M0 0 C2.25 0.25 2.25 0.25 4 1 C2.68 1.33 1.36 1.66 0 2 C0 3.65 0 5.3 0 7 C-0.99 7 -1.98 7 -3 7 C-3.33 6.01 -3.66 5.02 -4 4 C-2.25 1.9375 -2.25 1.9375 0 0 Z " fill="#F5D673" transform="translate(319,138)"/>
<path d="M0 0 C2.6875 0.3125 2.6875 0.3125 5 1 C5 1.99 5 2.98 5 4 C2.36 3.67 -0.28 3.34 -3 3 C-1.8125 1.4375 -1.8125 1.4375 0 0 Z " fill="#ECDB95" transform="translate(291,110)"/>
<path d="M0 0 C0.66 0.33 1.32 0.66 2 1 C1.745504 2.48206495 1.47088238 3.96068615 1.1875 5.4375 C1.03667969 6.26121094 0.88585937 7.08492187 0.73046875 7.93359375 C0.48941406 8.61550781 0.24835938 9.29742187 0 10 C-0.99 10.33 -1.98 10.66 -3 11 C-2.01 7.37 -1.02 3.74 0 0 Z " fill="#DDCFAD" transform="translate(365,238)"/>
<path d="M0 0 C-1.32 1.32 -2.64 2.64 -4 4 C-4.268125 3.360625 -4.53625 2.72125 -4.8125 2.0625 C-5.88667752 -0.33131686 -5.88667752 -0.33131686 -9 -1 C-5.23375329 -2.25541557 -3.62811066 -1.37061958 0 0 Z " fill="#A8C4C4" transform="translate(383,254)"/>
<path d="M0 0 C1.32 0.33 2.64 0.66 4 1 C4.33 2.32 4.66 3.64 5 5 C3.68 5 2.36 5 1 5 C0.67 3.35 0.34 1.7 0 0 Z " fill="#9FC5C3" transform="translate(328,253)"/>
<path d="M0 0 C1.32 0.66 2.64 1.32 4 2 C3.01 2.495 3.01 2.495 2 3 C4.97 3.495 4.97 3.495 8 4 C8 4.33 8 4.66 8 5 C6.72125 5.061875 5.4425 5.12375 4.125 5.1875 C3.40570313 5.22230469 2.68640625 5.25710937 1.9453125 5.29296875 C1.30335938 5.19628906 0.66140625 5.09960938 0 5 C-0.66 4.01 -1.32 3.02 -2 2 C-1.34 2 -0.68 2 0 2 C0 1.34 0 0.68 0 0 Z " fill="#EAD3A0" transform="translate(326,244)"/>
<path d="M0 0 C2.475 0.495 2.475 0.495 5 1 C5.33 2.32 5.66 3.64 6 5 C4.125 4.75 4.125 4.75 2 4 C0.75 1.9375 0.75 1.9375 0 0 Z " fill="#EFD772" transform="translate(359,132)"/>
<path d="M0 0 C0.99 0.33 1.98 0.66 3 1 C3 2.32 3 3.64 3 5 C2.34 5.66 1.68 6.32 1 7 C1 6.34 1 5.68 1 5 C-0.32 4.67 -1.64 4.34 -3 4 C-2.01 2.68 -1.02 1.36 0 0 Z " fill="#AECFD0" transform="translate(340,251)"/>
<path d="M0 0 C-2.55068845 2.35448165 -3.71017358 2.98327924 -7.25 3.1875 C-8.1575 3.125625 -9.065 3.06375 -10 3 C-3.94594595 -1.97297297 -3.94594595 -1.97297297 0 0 Z " fill="#E4D094" transform="translate(324,246)"/>
<path d="M0 0 C1.5625 1.1875 1.5625 1.1875 3 3 C2.6875 5.6875 2.6875 5.6875 2 8 C1.34 7.01 0.68 6.02 0 5 C-0.99387334 3.66209359 -1.9926892 2.32781878 -3 1 C-2.01 0.67 -1.02 0.34 0 0 Z " fill="#BBAF85" transform="translate(393,238)"/>
<path d="M0 0 C-0.99 0.495 -0.99 0.495 -2 1 C-1.67 1.99 -1.34 2.98 -1 4 C-2.32 4.33 -3.64 4.66 -5 5 C-5 4.01 -5 3.02 -5 2 C-5.66 1.67 -6.32 1.34 -7 1 C-4.53721199 -0.231394 -2.7204945 -0.07159196 0 0 Z " fill="#EDD3A5" transform="translate(331,237)"/>
<path d="M0 0 C0.66 0.33 1.32 0.66 2 1 C2.625 3.5625 2.625 3.5625 3 6 C0.03 5.505 0.03 5.505 -3 5 C-2.01 3.35 -1.02 1.7 0 0 Z " fill="#E0C26F" transform="translate(384,153)"/>
<path d="M0 0 C0.66 0.33 1.32 0.66 2 1 C2 1.66 2 2.32 2 3 C-2.625 5.125 -2.625 5.125 -6 4 C-4.02 2.68 -2.04 1.36 0 0 Z " fill="#E9CC6A" transform="translate(295,235)"/>
<path d="M0 0 C2.31 0 4.62 0 7 0 C6.01 0.33 5.02 0.66 4 1 C3.26676204 3.01508358 3.26676204 3.01508358 3 5 C2.34 4.67 1.68 4.34 1 4 C0.375 1.9375 0.375 1.9375 0 0 Z " fill="#CFCFBE" transform="translate(361,233)"/>
<path d="M0 0 C0.66 0.33 1.32 0.66 2 1 C1.67 2.65 1.34 4.3 1 6 C0.01 6.33 -0.98 6.66 -2 7 C-2 3.89448334 -1.4606285 2.64738916 0 0 Z " fill="#64ACB2" transform="translate(325,223)"/>
<path d="M0 0 C1.65 0 3.3 0 5 0 C5 1.98 5 3.96 5 6 C4.34 4.68 3.68 3.36 3 2 C1.68 2.33 0.36 2.66 -1 3 C-0.67 2.01 -0.34 1.02 0 0 Z " fill="#67A4AB" transform="translate(359,222)"/>
<path d="M0 0 C0.99 0.33 1.98 0.66 3 1 C2.6875 2.9375 2.6875 2.9375 2 5 C1.01 5.33 0.02 5.66 -1 6 C-0.67 4.02 -0.34 2.04 0 0 Z " fill="#5FAAB0" transform="translate(349,222)"/>
<path d="M0 0 C0.66 0.33 1.32 0.66 2 1 C0.625 3 0.625 3 -1 5 C-1.66 5 -2.32 5 -3 5 C-3.33 5.66 -3.66 6.32 -4 7 C-4.33 5.35 -4.66 3.7 -5 2 C-4.360625 1.855625 -3.72125 1.71125 -3.0625 1.5625 C-1.02454854 1.18992819 -1.02454854 1.18992819 0 0 Z " fill="#A1C1C4" transform="translate(382,217)"/>
<path d="" fill="#FFFFFF" transform="translate(0,0)"/>
</svg>
